<svg xmlns="http://www.w3.org/2000/svg" viewBox="0 0 134.21 150"><defs><style>.cls-1{fill:#efefef;}.cls-2{fill:#0277bd;}.cls-3{fill:#039be5;}.cls-4{fill:#fff;}.cls-5{fill:#eee;}</style></defs><g id="Calque_2" data-name="Calque 2"><rect class="cls-1" x="-755.99" y="-3103.5" width="2159.99" height="3382"/></g><g id="Calque_3" data-name="Calque 3"><path class="cls-2" d="M134.21,0H0L11.84,134.21,67.11,150l55.26-15.79L134.21,0Z"/><path class="cls-3" d="M67.11,11.84V137.76l44.21-12.63,9.86-113.29Z"/><path class="cls-4" d="M103,31.58H67.11V47.37H86.45L85.26,63.16H67.11V79H84.47L83.29,96.71l-16.18,5.53v16.58l31.18-10.27,2.76-45.39h0Z"/><path class="cls-5" d="M67.11,31.58V47.37H32L30.79,31.58ZM49,63.16,49.74,79H67.11V63.16Zm1.58,23.68H34.74l1.18,21.71,31.19,10.27V102.24L50.92,96.71Z"/></g></svg>