<svg xmlns="http://www.w3.org/2000/svg" viewBox="0 0 134.21 150"><defs><style>.cls-1{fill:#efefef;}.cls-2{fill:#e65100;}.cls-3{fill:#ff6d00;}.cls-4{fill:#fff;}.cls-5{fill:#eee;}</style></defs><g id="Calque_2" data-name="Calque 2"><rect class="cls-1" x="-571.78" y="-3103.5" width="2159.99" height="3382"/></g><g id="Calque_3" data-name="Calque 3"><path class="cls-2" d="M134.21,0H0L11.84,134.21,67.11,150l55.26-15.79L134.21,0Z"/><path class="cls-3" d="M67.11,11.84V137.76l44.21-12.63,9.86-113.29Z"/><path class="cls-4" d="M67.11,79V63.16h33.94l-2.76,45.39L67.11,118.82V102.24l16.18-5.53L84.47,79Zm35.13-31.58,1.18-15.79H67.11V47.37Z"/><path class="cls-5" d="M67.11,102.24v16.58L35.92,108.55,34.34,86.84H50.13l.79,9.87ZM47.76,47.37H67.11V31.58H31.18L34,79H67.11V63.16H49Z"/></g></svg>