<svg xmlns="http://www.w3.org/2000/svg" viewBox="0 0 153.85 150"><defs><style>.cls-1{fill:#efefef;}.cls-2{fill:#300;}.cls-3{fill:#ff9a00;}</style></defs><g id="Calque_2" data-name="Calque 2"><rect class="cls-1" x="-1257.9" y="-2779" width="2159.99" height="3382"/></g><g id="Calque_3" data-name="Calque 3"><path class="cls-2" d="M27.24,0H126.6a27.22,27.22,0,0,1,27.25,27.24v95.52A27.22,27.22,0,0,1,126.6,150H27.24A27.22,27.22,0,0,1,0,122.76V27.24A27.22,27.22,0,0,1,27.24,0Z"/><path class="cls-3" d="M74.6,89.74H50.66l-4.89,15.13a1.14,1.14,0,0,1-1.23.9H32.68c-.7,0-.89-.38-.7-1.15l20.56-59.2c.19-.64.38-1.34.64-2.11a21.87,21.87,0,0,0,.38-4.15.64.64,0,0,1,.51-.7H70.61c.51,0,.77.19.83.51l23.31,65.78c.19.7,0,1-.64,1H80.91a1,1,0,0,1-1-.71ZM54.36,76.92h16.4c-.38-1.35-.9-3-1.48-4.65s-1.16-3.61-1.74-5.55-1.23-3.94-1.88-5.94S64.44,56.91,63.92,55s-1-3.49-1.42-5h-.13a80,80,0,0,1-2.19,8.33c-1,3.1-1.94,6.33-3,9.55S55.33,74.21,54.36,76.92Z"/><path class="cls-3" d="M108.85,49.36a8,8,0,0,1-5.71-2.24,8.38,8.38,0,0,1-2.18-5.9,7.57,7.57,0,0,1,2.31-5.71,8.23,8.23,0,0,1,5.7-2.24,7.7,7.7,0,0,1,5.84,2.24,8.07,8.07,0,0,1,2.11,5.71,8.1,8.1,0,0,1-2.24,5.9,7.54,7.54,0,0,1-5.83,2.24Zm-6,56.41a1,1,0,0,1-1-1V55.38c0-.64.25-.89.82-.89h12.45a.84.84,0,0,1,.84.83v49.42c0,.71-.26,1-.82,1Z"/></g></svg>