<svg xmlns="http://www.w3.org/2000/svg" viewBox="0 0 153.85 150"><defs><style>.cls-1{fill:#efefef;}.cls-2{fill:#49021f;}.cls-3{fill:#f36;}</style></defs><g id="Calque_2" data-name="Calque 2"><rect class="cls-1" x="-850.24" y="-2779" width="2159.99" height="3382"/></g><g id="Calque_3" data-name="Calque 3"><path class="cls-2" d="M27.24,0H126.6a27.22,27.22,0,0,1,27.25,27.24v95.52A27.22,27.22,0,0,1,126.6,150H27.24A27.22,27.22,0,0,1,0,122.76V27.24A27.22,27.22,0,0,1,27.24,0Z"/><path class="cls-3" d="M55.77,39.3v66.08c0,.71-.32,1-.89,1H42.49c-.57,0-.82-.32-.82-1V39.29a.83.83,0,0,1,.83-.83H54.88a.73.73,0,0,1,.83.65A.23.23,0,0,1,55.77,39.3Z"/><path class="cls-3" d="M93.16,106.86A31.13,31.13,0,0,1,79.56,104,22.06,22.06,0,0,1,70,95.26c-2.34-3.91-3.48-8.79-3.48-14.62A26.38,26.38,0,0,1,80.07,57.18c4.43-2.5,9.74-3.72,16-3.72a10.22,10.22,0,0,1,1.33.07c.57.06,1.2.06,2,.12V33.4a.7.7,0,0,1,.7-.71h12.77a.56.56,0,0,1,.63.45V94.29c0,1.16.06,2.44.13,3.85s.19,2.63.25,3.72a1,1,0,0,1-.63,1A47.84,47.84,0,0,1,102.9,106a54.21,54.21,0,0,1-9.74.9Zm6.2-12.63V66a15,15,0,0,0-1.73-.32c-.71-.07-1.41-.13-2.12-.13a15.82,15.82,0,0,0-7.24,1.66A14.4,14.4,0,0,0,82.82,72a14.19,14.19,0,0,0-2.11,8.14,17.9,17.9,0,0,0,1.08,6.6,12.67,12.67,0,0,0,2.89,4.55A11.09,11.09,0,0,0,89,93.85a16.94,16.94,0,0,0,5.32.83c1,0,1.86-.06,2.69-.13a5.34,5.34,0,0,0,2.31-.32Z"/></g></svg>