<svg xmlns="http://www.w3.org/2000/svg" viewBox="0 0 150 150"><defs><style>.cls-1{fill:#efefef;}.cls-2{fill:#ffd600;}.cls-3{fill:#000001;}</style></defs><g id="Calque_2" data-name="Calque 2"><rect class="cls-1" x="-1140.2" y="-3103.5" width="2159.99" height="3382"/></g><g id="Calque_3" data-name="Calque 3"><path class="cls-2" d="M0,150V0H150V150Z"/><path class="cls-3" d="M98.08,112.28c2.88,4.68,6,9.17,12.65,9.17,5.57,0,8.5-2.77,8.5-6.6,0-4.59-3-6.22-9.16-8.89l-3.36-1.43C97,100.41,90.55,95.25,90.55,84.35c0-10,7.69-17.68,19.7-17.68,8.55,0,14.7,3,19.13,10.72l-10.47,6.7c-2.31-4.12-4.8-5.74-8.66-5.74s-6.44,2.49-6.44,5.74c0,4,2.5,5.64,8.27,8.13l3.37,1.43c11.43,4.87,17.88,9.85,17.88,21,0,12-9.51,18.65-22.29,18.65-12.49,0-19.59-6.27-23.54-14Zm-48.28.34c2.11,3.78,5.31,6.68,9.92,6.68,4.41,0,7-1.74,7-8.51V66.67H80.55v46.25c0,14-8.13,20.41-20,20.41-10.73,0-18.48-7.27-21.64-14Z"/></g></svg>