<svg xmlns="http://www.w3.org/2000/svg" viewBox="0 0 153.81 150"><defs><style>.cls-1{fill:#efefef;}.cls-2{fill:#001e36;}.cls-3{fill:#31a8ff;}</style></defs><g id="Calque_2" data-name="Calque 2"><rect class="cls-1" x="-1054.08" y="-2779" width="2159.99" height="3382"/></g><g id="Calque_3" data-name="Calque 3"><path class="cls-2" d="M27.24,0h99.34a27.23,27.23,0,0,1,27.23,27.24v95.52A27.23,27.23,0,0,1,126.58,150H27.24A27.23,27.23,0,0,1,0,122.76V27.24A27.23,27.23,0,0,1,27.24,0Z"/><path class="cls-3" d="M34.64,105.18v-66a.66.66,0,0,1,.66-.66c1.08,0,2.1,0,3.57-.06s3.14-.07,4.87-.13,3.59-.06,5.57-.13,3.91-.06,5.83-.06a37.52,37.52,0,0,1,13.2,2,22.69,22.69,0,0,1,8.59,5.25,20.45,20.45,0,0,1,4.68,7.31A24.52,24.52,0,0,1,83.08,61q0,8.26-3.84,13.65a22,22,0,0,1-10.32,7.82A41.58,41.58,0,0,1,54.5,84.67c-1.53,0-2.56,0-3.2-.07s-1.54-.06-2.76-.06v20.57a.79.79,0,0,1-.7.9H35.41c-.51,0-.77-.26-.77-.83Zm14-54.3V72.41c.89.06,1.73.13,2.49.13h3.4a24.2,24.2,0,0,0,7.37-1.15A11.09,11.09,0,0,0,67.13,68a9.93,9.93,0,0,0,2-6.6,10.47,10.47,0,0,0-1.47-5.71A9.36,9.36,0,0,0,63.15,52a18.7,18.7,0,0,0-7.56-1.28c-1.67,0-3.14,0-4.36.06a14.2,14.2,0,0,0-2.62.07Zm74.45,17.64a22.62,22.62,0,0,0-6.15-2.17,33.28,33.28,0,0,0-7.17-.84,13.1,13.1,0,0,0-3.85.45,3.28,3.28,0,0,0-2,1.28A3.38,3.38,0,0,0,103.4,69a2.83,2.83,0,0,0,.64,1.67,7,7,0,0,0,2.18,1.72c1.47.77,3,1.48,4.54,2.12a46.15,46.15,0,0,1,9.86,4.67,14.91,14.91,0,0,1,5.06,5.32,13.68,13.68,0,0,1,1.47,6.59,14.9,14.9,0,0,1-2.49,8.52,16.12,16.12,0,0,1-7.18,5.7,29.36,29.36,0,0,1-11.59,2,43.78,43.78,0,0,1-8.7-.84,25.19,25.19,0,0,1-6.53-2,1.25,1.25,0,0,1-.71-1.21V92.09a.68.68,0,0,1,.26-.58.49.49,0,0,1,.57.06,27.32,27.32,0,0,0,7.94,3.14,29.9,29.9,0,0,0,7.56,1,12.31,12.31,0,0,0,5.31-.89,3,3,0,0,0,1.73-2.69,3.38,3.38,0,0,0-1.53-2.56,26.69,26.69,0,0,0-6.28-3,39.65,39.65,0,0,1-9.09-4.61,16.58,16.58,0,0,1-4.87-5.45,13.72,13.72,0,0,1-1.47-6.53,15.07,15.07,0,0,1,2.18-7.75A15.79,15.79,0,0,1,99,56.29a24.92,24.92,0,0,1,11.33-2.24,54.29,54.29,0,0,1,7.94.58,22.5,22.5,0,0,1,5.51,1.47,1.1,1.1,0,0,1,.64.58,3.36,3.36,0,0,1,.13.76V67.88a.79.79,0,0,1-.32.64,1.67,1.67,0,0,1-1.15,0Z"/></g></svg>