<svg xmlns="http://www.w3.org/2000/svg" viewBox="0 0 150 150"><defs><style>.cls-1{fill:#efefef;}.cls-2{fill:#a0dbe8;}.cls-3{fill:#525353;}.cls-4{fill:#aa9678;}.cls-5{fill:#c0b098;}.cls-6{fill:#8b7460;}.cls-7{fill:none;}.cls-8{fill:#fff;}.cls-9{fill:#bbbcbd;}.cls-10{fill:#676a6a;}.cls-11{fill:#909393;}.cls-12{fill:#e2dddb;}.cls-13{fill:#fbb040;}.cls-14{fill:#9f2255;}.cls-15{fill:#e2066f;}</style></defs><g id="Calque_2" data-name="Calque 2"><rect class="cls-1" x="-1340.2" y="-3103.5" width="2159.99" height="3382"/></g><g id="Calque_3" data-name="Calque 3"><path class="cls-2" d="M48.62,115.09c1.2-.54,2.41-1,3.63-1.49,1.39-.52,2.78-1,4.19-1.43,1.76-.53,3.53-1,5.33-1.39a67.61,67.61,0,0,1,7.35-1.14q-2.09,6.54-4.58,13c.07.84.11,1.68.13,2.52a52.77,52.77,0,0,1,20.65,0c0-.85.06-1.68.14-2.52q-2.49-6.45-4.58-13a65.26,65.26,0,0,1,7.35,1.14c1.79.38,3.57.86,5.32,1.39,1.42.42,2.81.91,4.19,1.43s2.44,1,3.64,1.49A65,65,0,0,1,124,131.77a75,75,0,1,0-98,0A65,65,0,0,1,48.62,115.09Z"/><path class="cls-3" d="M53.56,128.66a52.28,52.28,0,0,1,11.11-3.51c0-.85-.06-1.68-.13-2.52q2.49-6.45,4.58-13a65.26,65.26,0,0,0-7.35,1.14c-1.79.38-3.57.86-5.33,1.39-1.41.42-2.8.91-4.19,1.43l5.47,1.33Z"/><path class="cls-3" d="M40.67,136.74c.14-1.4.22-2.81.22-4.23A1.55,1.55,0,0,1,42.45,131h1.36l4.81-15.87A65,65,0,0,0,26,131.77a74.17,74.17,0,0,0,11.31,8.07Q38.94,138.22,40.67,136.74Z"/><path class="cls-3" d="M101.38,115.09,106.19,131h1.36a1.54,1.54,0,0,1,1.55,1.55c0,1.42.09,2.83.22,4.23q1.74,1.48,3.35,3.1A75.37,75.37,0,0,0,124,131.77,65,65,0,0,0,101.38,115.09Z"/><path class="cls-3" d="M92.28,114.93l5.46-1.33c-1.38-.52-2.78-1-4.19-1.43-1.76-.53-3.53-1-5.33-1.39a67.06,67.06,0,0,0-7.34-1.14c1.38,4.36,2.92,8.69,4.57,13-.07.84-.11,1.68-.13,2.52a52.36,52.36,0,0,1,11.12,3.51Z"/><path d="M75,131H85.57a42,42,0,0,1-.25-5.81,52.77,52.77,0,0,0-20.65,0,42,42,0,0,1-.24,5.81Z"/><path d="M37.33,139.84c.87.51,1.75,1,2.64,1.48a43.21,43.21,0,0,0,.7-4.58Q38.93,138.22,37.33,139.84Z"/><path d="M52.86,131H64.43a42,42,0,0,0,.24-5.81,52.28,52.28,0,0,0-11.11,3.51Z"/><path d="M109.32,136.74a40.8,40.8,0,0,0,.71,4.58c.89-.47,1.77-1,2.64-1.48Q111.07,138.22,109.32,136.74Z"/><path d="M97.13,131l-.69-2.3a52.36,52.36,0,0,0-11.12-3.51,42,42,0,0,0,.25,5.81Z"/><path class="cls-4" d="M52.86,131l.7-2.3,4.16-13.73-5.46-1.33c-1.23.46-2.44,1-3.64,1.49L43.81,131h9Z"/><path class="cls-4" d="M96.44,128.66l.69,2.3h9.06l-4.81-15.87c-1.2-.54-2.41-1-3.64-1.49l-5.46,1.33Z"/><path class="cls-5" d="M44,134.16l.14-.1H44Z"/><path class="cls-5" d="M75,134.06H44.11l-.14.1a46.23,46.23,0,0,1-1.14,8.6A74.67,74.67,0,0,0,75,150Z"/><path class="cls-4" d="M106,134.06h-.13l.14.1S106,134.1,106,134.06Z"/><path class="cls-4" d="M105.89,134.06H75V150a74.59,74.59,0,0,0,32.16-7.24,47.08,47.08,0,0,1-1.13-8.6Z"/><path class="cls-6" d="M109.32,136.74c-.13-1.4-.22-2.81-.22-4.23a1.54,1.54,0,0,0-1.55-1.55H42.45a1.55,1.55,0,0,0-1.56,1.55,42.17,42.17,0,0,1-.22,4.23,43.21,43.21,0,0,1-.7,4.58c.94.5,1.9,1,2.86,1.44a46.12,46.12,0,0,0,1.14-8.6v-.1H106s0,.07,0,.1a45.4,45.4,0,0,0,1.13,8.6c1-.46,1.92-.94,2.86-1.44A43.61,43.61,0,0,1,109.32,136.74Z"/><path class="cls-7" d="M100.24,63.6h0v0a62.77,62.77,0,0,1,2.55,8.24l-.06.6q-.08.45-.15.81c.08-.37.15-.81.23-1.32a61,61,0,0,0-2.58-8.35v0Z"/><path class="cls-7" d="M122.08,80.56l-.12.07Z"/><path class="cls-7" d="M122.56,80.19a1.14,1.14,0,0,1-.16.15A1.14,1.14,0,0,0,122.56,80.19Z"/><path class="cls-7" d="M98,61.63a44.61,44.61,0,0,0-5.44-4h0A44.61,44.61,0,0,1,98,61.63Z"/><path class="cls-7" d="M115.38,79.6a.1.1,0,0,0,0,.05Z"/><path class="cls-7" d="M118.55,83.57c0,.06.11.12.16.19S118.6,83.63,118.55,83.57Z"/><path class="cls-7" d="M102.56,73.38c0,.22-.1.43-.15.58C102.46,73.8,102.51,73.6,102.56,73.38Z"/><path class="cls-7" d="M95.21,100.74a20,20,0,0,0-2.31,5.42,20,20,0,0,1,2.31-5.42l1.11-1.86-1.1,1.84Z"/><path class="cls-7" d="M100.25,63.59l.2-.4,0,0-.18.38,1.34,1.19Z"/><path class="cls-7" d="M85.36,73.44h0Z"/><path class="cls-7" d="M89.88,56.15,89.65,56Z"/><path class="cls-7" d="M90.26,56.36l-.32-.17Z"/><path class="cls-7" d="M92.72,62.41v0Z"/><path class="cls-7" d="M85.11,72.79h0Z"/><path class="cls-7" d="M121.62,87.53l.28.36Z"/><path class="cls-7" d="M92.71,64.77c0,.79,0,1.58-.08,2.36C92.67,66.35,92.69,65.56,92.71,64.77Z"/><path class="cls-7" d="M85.55,74.11v0Z"/><path class="cls-7" d="M92.41,57.59l-1.64-.94Z"/><path class="cls-7" d="M90.73,56.63l-.46-.26Z"/><path class="cls-7" d="M92.53,57.66h0l0,0Z"/><path class="cls-7" d="M124.12,75.88c0-.06,0-.12,0-.18v0c0-.06,0-.11,0-.16s0,.12,0,.18S124.12,75.81,124.12,75.88Z"/><path class="cls-7" d="M111.84,75.41c.08.08.15.17.22.25h0a3,3,0,0,0-.23-.25Z"/><path class="cls-7" d="M101.59,64.78c1,.92,2,1.85,2.94,2.8C103.56,66.63,102.59,65.7,101.59,64.78Z"/><path class="cls-7" d="M121.12,70.51a1.9,1.9,0,0,1,.53.09A1.9,1.9,0,0,0,121.12,70.51Z"/><path class="cls-7" d="M118.23,74.24c0,.08,0,.17,0,.26C118.2,74.41,118.22,74.32,118.23,74.24Z"/><path class="cls-7" d="M121.81,70.66a2,2,0,0,1,.36.19A2,2,0,0,0,121.81,70.66Z"/><path class="cls-7" d="M123,71.62l.12.16Z"/><path class="cls-7" d="M124.07,74.61s0,0,0,0,0,0,0-.06a.3.3,0,0,0,0,.1Z"/><path class="cls-7" d="M124.06,76.79s0,0,0,0h0a.43.43,0,0,0,0,.11S124.06,76.82,124.06,76.79Z"/><path class="cls-7" d="M119.15,71.78l.12-.16Z"/><path class="cls-7" d="M120.58,70.6a1.91,1.91,0,0,1,.54-.09A1.91,1.91,0,0,0,120.58,70.6Z"/><path class="cls-7" d="M107.26,70.37c-.46-.49-.93-1-1.4-1.44Z"/><path class="cls-7" d="M121.12,54.11h0v7L118.44,73.3a.29.29,0,0,1,0,.09l0-.07h0l2.67-12.23v-7Z"/><path class="cls-7" d="M109.75,73.06c-.24-.27-.48-.54-.73-.8C109.27,72.52,109.51,72.79,109.75,73.06Z"/><path class="cls-7" d="M123.79,73.32l.09.29h0l-.09-.28Z"/><path class="cls-7" d="M118.1,75.66h0s0-.1,0-.15S118.1,75.61,118.1,75.66Z"/><path class="cls-7" d="M120.06,70.85a2,2,0,0,1,.36-.19A2,2,0,0,0,120.06,70.85Z"/><path class="cls-7" d="M119.51,71.31a4.38,4.38,0,0,1,.39-.36A3.33,3.33,0,0,0,119.51,71.31Z"/><path class="cls-7" d="M123.88,77.75h0c-.07.26-.15.52-.24.76a7.73,7.73,0,0,0,.25-.77Z"/><path class="cls-7" d="M32.48,73.36l.33-.52Z"/><path class="cls-7" d="M122.33,71a4.38,4.38,0,0,1,.39.36A3.33,3.33,0,0,0,122.33,71Z"/><path class="cls-7" d="M34.6,70.24l.16-.23Z"/><path class="cls-7" d="M85.72,75.62h0l0,0Z"/><path class="cls-7" d="M29.22,79.34c-.13.27-.26.55-.38.82C29,79.89,29.09,79.61,29.22,79.34Z"/><path class="cls-7" d="M27.58,83.17l-.06.13Z"/><polygon class="cls-7" points="122.97 55.89 122.97 55.88 122.97 55.88 122.97 55.89"/><path class="cls-7" d="M42.39,61.83Z"/><path class="cls-7" d="M39.46,64.56l.45-.45Z"/><path class="cls-7" d="M36.81,67.45l.46-.54Z"/><path class="cls-7" d="M123.79,73.32l-2.67-12.23Z"/><path class="cls-7" d="M77.21,82.58l-.15,0Z"/><path class="cls-7" d="M77.93,82.7l-.17,0Z"/><path class="cls-7" d="M30.86,76.11c-.17.3-.33.61-.49.92C30.53,76.72,30.69,76.41,30.86,76.11Z"/><path class="cls-7" d="M75.21,81.84h0Z"/><path class="cls-7" d="M76.52,82.4l-.1,0Z"/><path class="cls-7" d="M75.85,82.15l0,0Z"/><path class="cls-7" d="M72.12,78.34h0Z"/><path class="cls-7" d="M71.79,74.06a.83.83,0,0,0,0,.15A.83.83,0,0,1,71.79,74.06Z"/><path class="cls-7" d="M72.52,72.19l0,0Z"/><path class="cls-7" d="M74.86,69.72Z"/><path class="cls-7" d="M72,73.41s0,.07,0,.11S72,73.44,72,73.41Z"/><path class="cls-7" d="M72.21,72.78a.21.21,0,0,1,0,.07A.21.21,0,0,0,72.21,72.78Z"/><path class="cls-7" d="M80.05,68.74h0Z"/><path class="cls-7" d="M81.33,69.13h0Z"/><path class="cls-7" d="M76,69.11h0Z"/><path class="cls-7" d="M77.33,68.73h0Z"/><path class="cls-7" d="M85.67,74.83h0Z"/><path class="cls-7" d="M123.19,79.43c-.08.12-.16.23-.25.34C123,79.66,123.11,79.55,123.19,79.43Z"/><path class="cls-7" d="M71.66,74.76l0,.17Z"/><path class="cls-7" d="M71.73,77v0Z"/><path class="cls-7" d="M123.56,78.69a3.71,3.71,0,0,1-.24.49A3.19,3.19,0,0,0,123.56,78.69Z"/><path class="cls-3" d="M96.47,120.25c-.22-.25-.46-.53-.7-.85.24.32.48.6.7.85Z"/><path class="cls-4" d="M98.2,122a.18.18,0,0,0,0,0,.18.18,0,0,1,0,0,14.3,14.3,0,0,1-1.73-1.72h0A14.3,14.3,0,0,0,98.2,122Z"/><circle class="cls-8" cx="121.09" cy="54.11"/><path class="cls-8" d="M124.13,75.7v0h0Z"/><path class="cls-9" d="M124.93,58.31h0l0-.05h0A24.78,24.78,0,0,0,123,55.89h0v0h0c-.3-.33-.61-.64-.91-.93l-.35-.32-.58-.51h0v7l2.67,12.24h0l.09.28,1.85,2.07,0,0h1.93c0-.18,0-.35,0-.53h0A52.38,52.38,0,0,0,125,58.61h0C125,58.51,125,58.41,124.93,58.31Z"/><path class="cls-9" d="M124.13,75.68v0Z"/><path class="cls-10" d="M124.05,74.51s0,0,0,.06,0,0,0,0h0a8.69,8.69,0,0,1,.05.89s0,.11,0,.16v0c0,.06,0,.12,0,.18a8.3,8.3,0,0,1-.05.87h0s0,0,0,0,0,0,0,.06a7.8,7.8,0,0,1-.17.89h0l1.84-2-1.85-2.08h0A8.43,8.43,0,0,1,124.05,74.51Z"/><path d="M124.05,76.86a.43.43,0,0,1,0-.11,8.3,8.3,0,0,0,.05-.87c0-.07,0-.13,0-.2s0-.12,0-.18a8.69,8.69,0,0,0-.05-.89s0-.06,0-.1a8.43,8.43,0,0,0-.17-.9l-.09-.29a5.76,5.76,0,0,0-.71-1.54l-.12-.16-.24-.31a3.33,3.33,0,0,0-.39-.36l-.16-.1a2,2,0,0,0-.36-.19l-.16-.06a1.64,1.64,0,0,0-1.07,0l-.16.06a2,2,0,0,0-.36.19l-.16.1a4.38,4.38,0,0,0-.39.36l-.24.31-.12.16a5.91,5.91,0,0,0-.71,1.54.19.19,0,0,1,0,.07c-.07.27-.14.55-.19.85,0,.08,0,.17,0,.26a8.42,8.42,0,0,0-.07,1s0,.1,0,.15h0c0,2.85,1.35,5.17,3,5.17a1.89,1.89,0,0,0,.83-.21l.12-.06a1.66,1.66,0,0,0,.32-.22,1.14,1.14,0,0,0,.16-.15,2.57,2.57,0,0,0,.38-.42c.09-.11.17-.22.25-.34s.09-.16.13-.25a3.19,3.19,0,0,0,.24-.49l.08-.18c.09-.24.17-.5.24-.76A7.8,7.8,0,0,0,124.05,76.86ZM121.22,75c-.62,0-1.13-.87-1.13-1.94s.51-1.94,1.13-1.94,1.14.87,1.14,1.94S121.85,75,121.22,75Z"/><ellipse class="cls-8" cx="121.22" cy="73.05" rx="1.13" ry="1.94"/><path class="cls-11" d="M118.44,73.32h0a5.76,5.76,0,0,1,.71-1.54l.12-.16.24-.31q.19-.19.39-.36l.16-.1a2,2,0,0,1,.36-.19l.16-.06a1.64,1.64,0,0,1,1.07,0l.16.06a2,2,0,0,1,.36.19l.16.1a3.33,3.33,0,0,1,.39.36l.24.31.12.16a5.76,5.76,0,0,1,.71,1.54h0l-2.67-12.23-2.68,12.23Z"/><path d="M85.72,75.57a5.84,5.84,0,0,0,0-.73h0c0-.24-.07-.47-.12-.7v0q-.08-.33-.18-.66v0a4.86,4.86,0,0,0-.25-.63v0c-.09-.2-.2-.41-.31-.6h0a7,7,0,0,0-3.47-3.05h0a6.57,6.57,0,0,0-1.26-.38h0a7.65,7.65,0,0,0-1.36-.13,7.23,7.23,0,0,0-1.33.13h0a6.56,6.56,0,0,0-1.24.37h0a6.29,6.29,0,0,0-1.15.6h0a7.21,7.21,0,0,0-1,.79v0h0a6.73,6.73,0,0,0-1.28,1.63s0,0,0,0c-.1.19-.2.38-.29.58l0,.06a5.37,5.37,0,0,0-.21.56s0,.08,0,.11a4.92,4.92,0,0,0-.14.55.83.83,0,0,0,0,.15,4.85,4.85,0,0,0-.09.55l0,.17c0,.24,0,.49,0,.74A6.82,6.82,0,0,0,71.73,77v0a6.69,6.69,0,0,0,.39,1.27v0a7.23,7.23,0,0,0,1.44,2.2,7.55,7.55,0,0,0,1.64,1.28h0a4.6,4.6,0,0,0,.59.29l0,0a4.79,4.79,0,0,0,.57.21l.09,0a5.54,5.54,0,0,0,.55.14l.15,0c.18,0,.36.06.55.09l.16,0a6.12,6.12,0,0,0,.74,0,7,7,0,0,0,2.75-.55,7.72,7.72,0,0,0,1.2-.65,7.23,7.23,0,0,0,1.91-1.91,7.72,7.72,0,0,0,.65-1.2,7,7,0,0,0,.55-2.75v0h0v-.05Zm-7.06-.83a2.66,2.66,0,1,1,2.65-2.66A2.65,2.65,0,0,1,78.66,74.74Z"/><circle class="cls-8" cx="78.66" cy="72.08" r="2.65"/><path class="cls-9" d="M73.8,70.55h0v0h0L78.7,55.64V52.11a41.94,41.94,0,0,0-8.35-.86c-.95,0-1.9,0-2.84.11l-.41,0A41.92,41.92,0,0,0,53,55.06a45.56,45.56,0,0,0-10.56,6.77h0c-.86.73-1.68,1.5-2.48,2.29l-.45.44c-.76.76-1.49,1.54-2.19,2.35l-.46.54c-.7.83-1.39,1.68-2.05,2.57,0,.07-.1.15-.16.22-.62.85-1.21,1.72-1.79,2.61l-.33.52c-.47.73-.9,1.48-1.32,2.24H53.33Z"/><path class="cls-12" d="M92.52,68.87c0-.58.08-1.16.11-1.74,0-.78.06-1.57.08-2.36,0-.61,0-1.22,0-1.83v-.53c0-1.58-.08-3.15-.18-4.73h0l0,0-.07,0-1.64-.94,0,0-.46-.26h0l-.32-.17-.06,0L89.65,56c-1-.52-2.06-1-3.12-1.46a54.59,54.59,0,0,0-7.83-2.45v3.52l4.82,14.91h0a6.94,6.94,0,0,1,1.27,1.63h0c.11.19.22.4.31.6v0a4.86,4.86,0,0,1,.25.63v0q.1.33.18.66v0c0,.23.09.46.12.7h0a5.84,5.84,0,0,1,0,.73h0l0,0h5.91c.39-2.16.67-4.35.85-6.55A1.23,1.23,0,0,1,92.52,68.87Z"/><path class="cls-13" d="M100.24,63.6v0Z"/><path class="cls-13" d="M85.77,96.85c1.34-1.33,2.61-2.61,3.81-3.86.72-.75,1.42-1.48,2.09-2.21,4.94-5.36,8.56-10.37,10.74-16.82,0-.16.1-.36.15-.58l0-.11q.07-.36.15-.81c0-.21,0-.41.05-.6a59.89,59.89,0,0,0-2.55-8.24v0l0,0-.55-.49c-.56-.52-1.12-1-1.7-1.5a44.61,44.61,0,0,0-5.44-4h0c.1,1.58.16,3.15.18,4.73v.53c0,.61,0,1.22,0,1.83,0,.79,0,1.58-.08,2.36q0,.87-.12,1.74c0,.06,0,.12,0,.18a65.38,65.38,0,0,1-.86,6.56L91,78.89c-1.45,5.87-4.39,11.2-6.81,16.7-.64,1.46-1.25,2.94-1.79,4.44l-.15.42c.76-.79,1.43-1.48,1.94-2Z"/><path class="cls-11" d="M73.83,70.52h0a7.28,7.28,0,0,1,1-.8h0a7.84,7.84,0,0,1,1.15-.6h0a6.56,6.56,0,0,1,1.24-.37h0a7.23,7.23,0,0,1,1.33-.13,6.82,6.82,0,0,1,1.36.14h0a7.36,7.36,0,0,1,1.26.38h0a7.2,7.2,0,0,1,2.2,1.43v0L78.7,55.64Z"/><path class="cls-10" d="M72.12,78.34a7,7,0,0,1-.39-1.28v0a6.75,6.75,0,0,1-.14-1.36c0-.25,0-.5,0-.74l0-.17a5.25,5.25,0,0,1,.09-.55.83.83,0,0,1,0-.15,4.26,4.26,0,0,1,.14-.54s0-.08,0-.11c.07-.19.13-.38.21-.57,0,0,0,0,0-.06.09-.19.19-.39.29-.57l0,0a7,7,0,0,1,1.28-1.64h0L53.33,75.61h0l20.28,4.94a6.93,6.93,0,0,1-1.44-2.2Z"/><path class="cls-12" d="M118.18,74.5a2.56,2.56,0,0,0,0-.27,7.35,7.35,0,0,1,.19-.84.36.36,0,0,0,0-.1l2.67-12.23v-7a10.86,10.86,0,0,0-7-2.79c-3.07,0-5.94,1.7-8.09,3.79a30.69,30.69,0,0,0-5.62,8.1c-.07.13-.14.26-.2.4l1.34,1.19c1,.91,2,1.85,2.94,2.8.45.44.88.9,1.33,1.35s.93.95,1.4,1.44,1.18,1.25,1.76,1.88l.73.81c.71.78,1.4,1.56,2.09,2.35h0l.23.24h6c0-.05,0-.09,0-.14C118.11,75.17,118.14,74.83,118.18,74.5Z"/><path class="cls-12" d="M100.25,63.62v0h0v0l0,0Z"/><path class="cls-3" d="M27.52,83.3l.06-.13c.38-1,.81-2,1.26-3,.12-.27.25-.55.38-.82.36-.78.75-1.55,1.15-2.31.16-.31.32-.62.49-.92s.2-.33.29-.5c.43-.76.86-1.51,1.32-2.25.11-.17.23-.34.34-.52.57-.88,1.17-1.75,1.79-2.6l.16-.23c.65-.88,1.34-1.73,2.05-2.57l.46-.53c.7-.81,1.43-1.59,2.19-2.36l.45-.44c.8-.78,1.62-1.55,2.48-2.28h0A26.83,26.83,0,0,1,82.25,46.29a27.45,27.45,0,0,1,10.06,11l0,.07a3.65,3.65,0,0,1,.18.34h0a44.32,44.32,0,0,1,5.44,4c.58.48,1.14,1,1.7,1.5l.55.49v0h0c.07-.13.13-.26.19-.38,1.72-10.85,6.5-18.67,12.15-18.67,4.25,0,8,4.44,10.36,11.27l0,.07h0a26,26,0,0,1,1.92,2.37h0l0,.05h0c0,.1.06.2.1.3h0l-.09-.35A52.61,52.61,0,0,0,22.49,75.1,52,52,0,0,0,25.1,91.47a0,0,0,0,0,0,0c.33-1.55.73-3.09,1.2-4.61C26.68,85.64,27.08,84.47,27.52,83.3Z"/><path class="cls-8" d="M125.73,75.68l-1.84,2h0a7.73,7.73,0,0,1-.25.77l-.08.18a3.85,3.85,0,0,1-.24.5l-.13.24c-.08.12-.16.23-.25.34a2.57,2.57,0,0,1-.38.42l-.16.16a2.2,2.2,0,0,1-.32.21l-.12.07a2,2,0,0,1-.83.2c-1.67,0-3-2.32-3-5.17h-6q1.68,1.95,3.32,4l0,0c1.06,1.3,2.1,2.6,3.14,3.92l.15.19q1.47,1.88,2.91,3.76c.09.13.18.25.28.37l3,4,0,0a52.5,52.5,0,0,0,2.76-16.28h-2Z"/><path d="M67.1,51.38l.41,0c.94-.07,1.89-.11,2.84-.11a41.94,41.94,0,0,1,8.35.86v0a54.59,54.59,0,0,1,7.83,2.45c1.06.45,2.1.94,3.12,1.46l.23.13.06,0,.32.17h0l.46.26,0,0,1.64.94.07,0,0,0h0a3.65,3.65,0,0,0-.18-.34l0-.07a27.36,27.36,0,0,0-10.06-11A26.82,26.82,0,0,0,42.39,61.83,45.24,45.24,0,0,1,53,55.06,41.94,41.94,0,0,1,67.1,51.38Z"/><path d="M106.07,55.1c2.15-2.1,5-3.8,8.09-3.8a10.91,10.91,0,0,1,7,2.79v0h0c.2.16.39.34.58.52l.36.31q.45.44.9.93h0l0,0h0l0-.07c-2.34-6.83-6.11-11.27-10.36-11.27-5.65,0-10.43,7.82-12.15,18.67l0,0A30.48,30.48,0,0,1,106.07,55.1Z"/><path class="cls-8" d="M56.26,124.16c.48.19,1,.35,1.46.52a52.52,52.52,0,0,0,37-.85l1-.4,1.54-.68c.45-.21.9-.42,1.35-.65l-.32.05h0a21.77,21.77,0,0,1-5.59,0c-10.83-1.55-13.23-6.77-12.88-12.21a26.46,26.46,0,0,1-2.38-1.54A69.94,69.94,0,0,1,64.15,95.89a70.11,70.11,0,0,0,16,8.67l.6.22c.45-1.55,1-3,1.44-4.32h0c0-.15.11-.29.15-.43.54-1.5,1.15-3,1.79-4.44,2.42-5.5,5.36-10.83,6.81-16.7l.7-3.28H85.72s0,0,0,0a7,7,0,0,1-.56,2.75,7.72,7.72,0,0,1-.65,1.2,7.23,7.23,0,0,1-1.91,1.91,7.72,7.72,0,0,1-1.2.65,7,7,0,0,1-2.75.56c-.25,0-.49,0-.73,0l-.17,0a4.85,4.85,0,0,1-.55-.09l-.15,0c-.18,0-.37-.09-.54-.15l-.1,0c-.19-.07-.39-.14-.57-.22l0,0-.59-.29h0a7.05,7.05,0,0,1-1.65-1.27l-20.27-5H31.15c-.09.17-.2.33-.29.5s-.33.62-.49.92c-.4.76-.79,1.53-1.15,2.31-.13.27-.26.55-.38.82-.45,1-.87,2-1.26,3l-.06.14c-.44,1.16-.84,2.33-1.2,3.52-.47,1.52-.87,3.06-1.2,4.61a52.66,52.66,0,0,0,19.12,26.19c.26.19.53.36.79.54a51.38,51.38,0,0,0,11.23,6Z"/><path class="cls-14" d="M92.58,107.82a14.69,14.69,0,0,0,0,4.43,16.34,16.34,0,0,0,.38,1.67,15.23,15.23,0,0,0,.83,2.25,17.06,17.06,0,0,0,1,1.91c.12.2.24.38.36.56l.55.76c.25.32.48.6.71.86A14.16,14.16,0,0,0,98.2,122l0,0s0,.08,0,.13h0l.32,0a33.33,33.33,0,0,0,7-1.77c1.19-.43,2.37-.89,3.54-1.43.36-.16.7-.34,1.06-.51,12-5.82,22.13-16.13,22.13-16.13A66.08,66.08,0,0,1,92.58,107.82Z"/><path class="cls-15" d="M121.62,87.53c-1-1.27-1.93-2.52-2.91-3.77,0-.07-.11-.13-.16-.19-1-1.32-2.07-2.62-3.13-3.92l0,0q-1.63-2-3.32-4l-.22-.25c-.68-.79-1.38-1.57-2.09-2.35l-.73-.8c-.58-.64-1.17-1.27-1.76-1.89l-1.4-1.44c-.44-.45-.88-.9-1.33-1.34-1-1-1.94-1.89-2.94-2.81l-1.34-1.19h0A60.1,60.1,0,0,1,102.82,72c.14.74.26,1.46.35,2.17,1.33,9.86-1.83,16.3-6.85,24.76l-1.11,1.86a20,20,0,0,0-2.31,5.42,15.28,15.28,0,0,0-.32,1.67c9.84,1.58,24.63,1.88,39.77-5.56,0,0-3-4.36-7.43-10.36l-3-4Z"/><path d="M98.2,122a14.3,14.3,0,0,1-1.73-1.72c-.22-.26-.46-.53-.7-.85s-.37-.49-.55-.76l-.37-.56a17,17,0,0,1-1-1.91,15.23,15.23,0,0,1-.83-2.25,14.06,14.06,0,0,1-.38-1.67,14.66,14.66,0,0,1-.18-2.77,16.24,16.24,0,0,1,.15-1.66c.08-.54.19-1.09.33-1.66a20.17,20.17,0,0,1,2.31-5.43h0c.37-.63.74-1.24,1.1-1.84,5-8.47,8.17-14.9,6.85-24.77-.1-.7-.21-1.42-.35-2.16q-.12.76-.24,1.32a.43.43,0,0,1,0,.11c0,.22-.1.42-.15.58-2.18,6.45-5.81,11.46-10.74,16.82-.67.73-1.37,1.46-2.09,2.21-1.2,1.25-2.47,2.53-3.81,3.86l-1.63,1.62c-.51.5-1.18,1.19-1.94,2h0c-.46,1.31-1,2.78-1.44,4.33l-.6-.22a70.33,70.33,0,0,1-16-8.67,70.2,70.2,0,0,0,13.27,12.47,25.12,25.12,0,0,0,2.38,1.54c-.35,5.44,2,10.66,12.87,12.21a21.85,21.85,0,0,0,5.6,0l-.05-.13Z"/></g></svg>