<svg xmlns="http://www.w3.org/2000/svg" viewBox="0 0 150 150"><defs><style>.cls-1{fill:#efefef;}.cls-2{fill:#fff;}</style></defs><g id="Calque_2" data-name="Calque 2"><rect class="cls-1" x="-940.2" y="-3103.5" width="2159.99" height="3382"/></g><g id="Calque_3" data-name="Calque 3"><g id="carré"><path d="M150,75A75,75,0,1,1,75,0,75,75,0,0,1,150,75Z"/><path class="cls-2" d="M107.79,27.75C100.17,28,93.52,32.22,88.57,38c-5.48,6.37-9.13,13.92-11.76,21.64-4.7-3.86-8.32-8.84-15.86-11a19.36,19.36,0,0,0-17.58,3.21A15.67,15.67,0,0,0,38,59.69c-2.26,7.35,2.38,13.9,4.49,16.25l4.61,4.94c.94,1,3.24,3.49,2.11,7.11-1.2,3.94-6,6.49-10.82,5-2.17-.67-5.3-2.29-4.6-4.57A20.64,20.64,0,0,1,35.1,86a11.07,11.07,0,0,0,.59-1.53c.89-2.9-.33-6.67-3.44-7.64-2.9-.89-5.87-.18-7,3.56-1.31,4.24.72,11.94,11.6,15.3,12.76,3.92,23.54-3,25.07-12.08,1-5.66-1.6-9.88-6.29-15.3l-3.82-4.23a7,7,0,0,1-.71-9.28c2-2.56,4.9-3.64,9.61-2.36,6.89,1.86,10,6.64,15.07,10.5C73.65,69.85,72.27,76.81,71,83.05l-.77,4.66C66.6,106.9,63.8,117.44,56.54,123.5a11.85,11.85,0,0,1-6.71,2.71,1.93,1.93,0,0,1-2.21-1.59c0-1.16.94-1.69,1.59-2.21a4,4,0,0,0,2.34-4.22,6.37,6.37,0,0,0-6.84-6.07,7.92,7.92,0,0,0-7.35,8c.18,5.3,5.12,9.27,12.57,9,4-.13,12.89-1.75,21.65-12.17,10.21-12,13.06-25.65,15.21-35.67l2.4-13.24c1.32.16,2.75.27,4.3.31,12.71.27,19.06-6.31,19.16-11.1.07-2.9-1.9-5.76-4.65-5.69a5.31,5.31,0,0,0-5,4.09c-.59,2.67,4,5.08.42,7.43C100.83,64.8,96.23,66,89.74,65l1.18-6.52C93.33,46.15,96.29,31,107.55,30.58c.82,0,3.82,0,3.89,2,0,.66-.14.84-.92,2.35a5.39,5.39,0,0,0-1,3.35c.11,3.15,2.51,5.23,6,5.11,4.65-.16,6-4.68,5.9-7C121.16,31,115.4,27.5,107.79,27.75Z"/></g></g></svg>