<svg xmlns="http://www.w3.org/2000/svg" viewBox="0 0 150 150"><defs><style>.cls-1{fill:#efefef;}.cls-2{fill:#fff;}.cls-3{fill:#21759b;}</style></defs><g id="Calque_2" data-name="Calque 2"><rect class="cls-1" x="-1540.2" y="-3103.5" width="2159.99" height="3382"/></g><g id="Calque_3" data-name="Calque 3"><path class="cls-2" d="M75,0a75,75,0,1,0,75,75A75.09,75.09,0,0,0,75,0Z"/><path class="cls-3" d="M10.66,75a64.34,64.34,0,0,0,36.26,57.9L16.23,48.81A64.14,64.14,0,0,0,10.66,75Z"/><path class="cls-3" d="M118.43,71.75c0-8-2.85-13.46-5.3-17.74-3.26-5.3-6.32-9.79-6.32-15.09,0-5.92,4.49-11.42,10.8-11.42.29,0,.56,0,.84.05A64.33,64.33,0,0,0,21.24,39.66c1.51.05,2.94.08,4.14.08,6.73,0,17.15-.82,17.15-.82a2.66,2.66,0,0,1,.41,5.3s-3.48.41-7.36.61L59,114.53,73.09,72.3l-10-27.47c-3.47-.2-6.75-.61-6.75-.61-3.47-.2-3.06-5.51.4-5.3,0,0,10.63.82,17,.82,6.73,0,17.15-.82,17.15-.82,3.47-.21,3.88,4.89.41,5.3,0,0-3.49.41-7.36.61L107.12,114l6.42-21.45c2.78-8.9,4.89-15.29,4.89-20.8Z"/><path class="cls-3" d="M76.13,80.63l-19.3,56.09a64.35,64.35,0,0,0,39.54-1,4.88,4.88,0,0,1-.46-.88Z"/><path class="cls-3" d="M131.46,44.13a50.55,50.55,0,0,1,.43,6.62c0,6.52-1.22,13.86-4.89,23l-19.66,56.82a64.35,64.35,0,0,0,24.12-86.48Z"/><path class="cls-3" d="M75,0a75,75,0,1,0,75,75A75.09,75.09,0,0,0,75,0Zm0,146.56A71.56,71.56,0,1,1,146.56,75,71.64,71.64,0,0,1,75,146.56Z"/></g></svg>