<svg width="135" height="150" viewBox="0 0 135 150" fill="none" xmlns="http://www.w3.org/2000/svg">
<path d="M134.21 0H0L11.84 134.21L67.11 150L122.37 134.21L134.21 0Z" fill="#0277BD"/>
<path d="M67.11 11.84V137.76L111.32 125.13L121.18 11.84H67.11Z" fill="#039BE5"/>
<path d="M103 31.58H67.11V47.37H86.45L85.26 63.16H67.11V79H84.47L83.29 96.71L67.11 102.24V118.82L98.29 108.55L101.05 63.16L103 31.58Z" fill="white"/>
<path d="M67.11 31.58V47.37H32L30.79 31.58H67.11ZM49 63.16L49.74 79H67.11V63.16H49ZM50.58 86.84H34.74L35.92 108.55L67.11 118.82V102.24L50.92 96.71L50.58 86.84Z" fill="#EEEEEE"/>
</svg>
