<svg width="135" height="150" viewBox="0 0 135 150" fill="none" xmlns="http://www.w3.org/2000/svg">
<path d="M134.21 0H0L11.84 134.21L67.11 150L122.37 134.21L134.21 0Z" fill="#E65100"/>
<path d="M67.11 11.84V137.76L111.32 125.13L121.18 11.84H67.11Z" fill="#FF6D00"/>
<path d="M67.11 79V63.16H101.05L98.29 108.55L67.11 118.82V102.24L83.29 96.71L84.47 79H67.11ZM102.24 47.42L103.42 31.63H67.11V47.37L102.24 47.42Z" fill="white"/>
<path d="M67.11 102.24V118.82L35.92 108.55L34.34 86.84H50.13L50.92 96.71L67.11 102.24ZM47.76 47.37H67.11V31.58H31.18L34 79H67.11V63.16H49L47.76 47.37Z" fill="#EEEEEE"/>
</svg>
