<svg width="155" height="150" viewBox="0 0 155 150" fill="none" xmlns="http://www.w3.org/2000/svg">
<path d="M28.05 1.2828e-06H127.41C130.989 -0.00394398 134.533 0.697874 137.84 2.06529C141.148 3.43271 144.153 5.43888 146.684 7.96901C149.215 10.4991 151.222 13.5035 152.591 16.8103C153.96 20.117 154.663 23.6612 154.66 27.24V122.76C154.663 126.339 153.96 129.883 152.591 133.19C151.222 136.496 149.215 139.501 146.684 142.031C144.153 144.561 141.148 146.567 137.84 147.935C134.533 149.302 130.989 150.004 127.41 150H28.05C24.472 150.003 20.9287 149.3 17.6226 147.932C14.3165 146.564 11.3125 144.557 8.78254 142.027C6.25255 139.497 4.24617 136.493 2.87816 133.187C1.51016 129.881 0.807367 126.338 0.809997 122.76V27.24C0.807367 23.6621 1.51016 20.1187 2.87816 16.8126C4.24617 13.5065 6.25255 10.5025 8.78254 7.97255C11.3125 5.44256 14.3165 3.43617 17.6226 2.06817C20.9287 0.70016 24.472 -0.00262859 28.05 1.2828e-06Z" fill="#330000"/>
<path d="M75.41 89.74H51.47L46.58 104.87C46.5222 105.145 46.3646 105.39 46.1375 105.556C45.9104 105.722 45.6299 105.798 45.35 105.77H33.49C32.79 105.77 32.6 105.39 32.79 104.62L53.35 45.42C53.54 44.78 53.73 44.08 53.99 43.31C54.2485 41.9419 54.3757 40.5523 54.37 39.16C54.3518 39.0006 54.3942 38.8403 54.4886 38.7106C54.5831 38.581 54.7227 38.4915 54.88 38.46H71.42C71.93 38.46 72.19 38.65 72.25 38.97L95.56 104.75C95.75 105.45 95.56 105.75 94.92 105.75H81.72C81.4981 105.759 81.2794 105.695 81.0984 105.566C80.9173 105.438 80.7842 105.253 80.72 105.04L75.41 89.74ZM55.17 76.92H71.57C71.19 75.57 70.67 73.92 70.09 72.27C69.51 70.62 68.93 68.66 68.35 66.72C67.77 64.78 67.12 62.78 66.47 60.78C65.82 58.78 65.25 56.91 64.73 55C64.21 53.09 63.73 51.51 63.31 50H63.18C62.6001 52.814 61.869 55.5947 60.99 58.33C59.99 61.43 59.05 64.66 57.99 67.88C56.93 71.1 56.14 74.21 55.17 76.92Z" fill="#FF9A00"/>
<path d="M109.66 49.36C108.608 49.3806 107.562 49.1934 106.582 48.809C105.602 48.4246 104.708 47.8506 103.95 47.12C102.485 45.511 101.703 43.3951 101.77 41.22C101.733 40.1595 101.92 39.1031 102.318 38.1194C102.716 37.1357 103.316 36.2467 104.08 35.51C105.621 34.0579 107.663 33.2556 109.78 33.27C110.856 33.214 111.932 33.3844 112.938 33.7703C113.944 34.1562 114.857 34.7488 115.62 35.51C117.042 37.0649 117.799 39.1142 117.73 41.22C117.77 42.3033 117.593 43.3837 117.208 44.3971C116.823 45.4106 116.239 46.3365 115.49 47.12C114.735 47.8882 113.823 48.4856 112.818 48.872C111.812 49.2584 110.735 49.4248 109.66 49.36ZM103.66 105.77C103.395 105.77 103.14 105.665 102.953 105.477C102.765 105.29 102.66 105.035 102.66 104.77V55.38C102.66 54.74 102.91 54.49 103.48 54.49H115.93C116.151 54.49 116.363 54.5771 116.52 54.7325C116.678 54.8879 116.767 55.099 116.77 55.32V104.74C116.77 105.45 116.51 105.74 115.95 105.74L103.66 105.77Z" fill="#FF9A00"/>
</svg>
