<svg width="154" height="150" viewBox="0 0 154 150" fill="none" xmlns="http://www.w3.org/2000/svg">
<path d="M27.24 1.2828e-06H126.6C130.179 -0.00394398 133.723 0.697874 137.03 2.06529C140.338 3.43271 143.343 5.43888 145.874 7.96901C148.405 10.4991 150.412 13.5035 151.781 16.8103C153.15 20.117 153.853 23.6612 153.85 27.24V122.76C153.853 126.339 153.15 129.883 151.781 133.19C150.412 136.496 148.405 139.501 145.874 142.031C143.343 144.561 140.338 146.567 137.03 147.935C133.723 149.302 130.179 150.004 126.6 150H27.24C23.6621 150.003 20.1187 149.3 16.8126 147.932C13.5065 146.564 10.5025 144.557 7.97255 142.027C5.44256 139.497 3.43618 136.493 2.06817 133.187C0.700166 129.881 -0.00262252 126.338 7.35362e-06 122.76V27.24C-0.00262252 23.6621 0.700166 20.1187 2.06817 16.8126C3.43618 13.5065 5.44256 10.5025 7.97255 7.97255C10.5025 5.44256 13.5065 3.43617 16.8126 2.06817C20.1187 0.70016 23.6621 -0.00262859 27.24 1.2828e-06Z" fill="#49021F"/>
<path d="M55.77 39.3V105.38C55.77 106.09 55.45 106.38 54.88 106.38H42.49C41.92 106.38 41.67 106.06 41.67 105.38V39.29C41.67 39.0699 41.7574 38.8588 41.9131 38.7031C42.0687 38.5474 42.2799 38.46 42.5 38.46H54.88C54.9775 38.446 55.0768 38.4519 55.172 38.4773C55.2671 38.5027 55.3562 38.5471 55.4337 38.6079C55.5112 38.6686 55.5757 38.7444 55.6232 38.8307C55.6707 38.917 55.7002 39.012 55.71 39.11C55.7336 39.1351 55.7512 39.1653 55.7616 39.1982C55.772 39.2311 55.7749 39.2659 55.77 39.3Z" fill="#FF3366"/>
<path d="M93.16 106.86C88.4691 106.944 83.8199 105.966 79.56 104C75.5706 102.109 72.2403 99.0643 70 95.26C67.66 91.35 66.52 86.47 66.52 80.64C66.4462 75.8698 67.6673 71.1689 70.0534 67.0377C72.4395 62.9065 75.9012 59.4997 80.07 57.18C84.5 54.68 89.81 53.46 96.07 53.46C96.5144 53.4544 96.9587 53.4778 97.4 53.53C97.97 53.59 98.6 53.59 99.4 53.65V33.4C99.3987 33.3072 99.4158 33.2151 99.4504 33.129C99.485 33.043 99.5363 32.9646 99.6015 32.8985C99.6666 32.8325 99.7442 32.78 99.8298 32.7442C99.9154 32.7084 100.007 32.69 100.1 32.69H112.87C113.013 32.6694 113.158 32.7048 113.275 32.7886C113.393 32.8724 113.473 32.9983 113.5 33.14V94.29C113.5 95.45 113.56 96.73 113.63 98.14C113.7 99.55 113.82 100.77 113.88 101.86C113.895 102.072 113.842 102.283 113.729 102.463C113.615 102.643 113.448 102.782 113.25 102.86C109.93 104.295 106.458 105.348 102.9 106C99.6871 106.593 96.4272 106.894 93.16 106.9V106.86ZM99.36 94.23V66C98.7901 65.8596 98.2124 65.7527 97.63 65.68C96.92 65.61 96.22 65.55 95.51 65.55C92.9991 65.5209 90.5174 66.0899 88.27 67.21C86.0743 68.3153 84.198 69.9643 82.82 72C81.3104 74.4378 80.5748 77.2758 80.71 80.14C80.6522 82.3883 81.0186 84.6274 81.79 86.74C82.4158 88.4464 83.4015 89.9982 84.68 91.29C85.9053 92.4624 87.3832 93.3382 89 93.85C90.7178 94.4085 92.5138 94.6887 94.32 94.68C95.32 94.68 96.18 94.62 97.01 94.55C97.7942 94.6148 98.583 94.5056 99.32 94.23H99.36Z" fill="#FF3366"/>
</svg>
