<svg width="150" height="150" viewBox="0 0 150 150" fill="none" xmlns="http://www.w3.org/2000/svg">
<path d="M0 150V0H150V150H0Z" fill="#FFD600"/>
<path d="M98.08 112.28C100.96 116.96 104.08 121.45 110.73 121.45C116.3 121.45 119.23 118.68 119.23 114.85C119.23 110.26 116.23 108.63 110.07 105.96L106.71 104.53C97 100.41 90.55 95.25 90.55 84.35C90.55 74.35 98.24 66.67 110.25 66.67C118.8 66.67 124.95 69.67 129.38 77.39L118.91 84.09C116.6 79.97 114.11 78.35 110.25 78.35C106.39 78.35 103.81 80.84 103.81 84.09C103.81 88.09 106.31 89.73 112.08 92.22L115.45 93.65C126.88 98.52 133.33 103.5 133.33 114.65C133.33 126.65 123.82 133.3 111.04 133.3C98.55 133.3 91.45 127.03 87.5 119.3L98.08 112.28ZM49.8 112.62C51.91 116.4 55.11 119.3 59.72 119.3C64.13 119.3 66.72 117.56 66.72 110.79V66.67H80.55V112.92C80.55 126.92 72.42 133.33 60.55 133.33C49.82 133.33 42.07 126.06 38.91 119.33L49.8 112.62Z" fill="#000001"/>
</svg>
