<svg width="646" height="580" viewBox="0 0 646 580" fill="none" xmlns="http://www.w3.org/2000/svg">
<path d="M633.706 24.7319C634.93 19.0509 629.347 14.2515 623.91 16.3084L387.825 106.421C384.984 107.498 383.123 110.241 383.123 113.277C383.123 116.313 384.984 119.056 387.825 120.133L454.145 145.747V226.407C454.145 229.786 456.496 232.774 459.777 233.557C463.059 234.341 466.487 232.774 468.055 229.737L495.484 175.327L562.44 224.987C566.505 228.023 572.383 226.064 573.852 221.216C636.302 16.3573 633.608 25.2706 633.706 24.7319ZM575.419 50.5902L460.414 132.475L410.944 113.375L575.419 50.5902ZM468.79 144.522L569.052 73.1183C482.798 164.112 487.304 159.313 486.912 159.802C486.373 160.537 487.892 157.648 468.79 195.504V144.522V144.522ZM562.783 207.013L503.859 163.28L610.391 50.8841L562.783 207.013Z" fill="white"/>
<path d="M203.317 500.417C167.855 526.569 128.181 549.342 85.1766 568.197C79.5929 570.646 73.0785 568.099 70.6785 562.516C68.2295 556.933 70.7764 550.469 76.3602 548.02C123.038 527.549 165.602 502.327 202.876 473.09C238.24 445.321 267.922 414.615 291.187 381.802C306.126 360.694 318.078 339.292 326.796 317.94C298.534 329.204 270.616 336.158 243.677 338.558C207.186 341.839 172.361 336.844 140.23 323.719C116.475 314.022 92.9155 300.26 73.8622 284.931C56.7191 271.169 42.9067 255.988 32.8168 239.875C20.0819 219.698 13.1757 197.904 12.2451 175.131C10.6777 137.372 25.4207 99.1235 53.7803 67.4863C80.4745 37.71 115.985 17.5817 151.3 12.3415C175.496 8.71738 200.231 11.9497 224.721 21.9404C246.517 30.8047 267.579 44.7623 287.22 63.3725C323.171 97.4094 350.845 143.935 361.376 187.865C368.086 216.025 368.331 245.948 362.307 276.508C391.94 259.807 410.356 244.283 411.385 243.401C416.038 239.434 422.993 240.022 426.912 244.674C430.879 249.327 430.291 256.281 425.638 260.199C424.316 261.326 396.936 284.441 354.764 305.402C345.213 335.228 329.882 365.298 309.114 394.584C284.624 429.111 253.424 461.385 216.444 490.426C212.133 493.806 207.774 497.136 203.317 500.417ZM94.5808 59.9932C85.8623 66.4088 77.6826 73.8529 70.2376 82.1785C45.7475 109.506 32.9637 142.221 34.3351 174.201C35.8045 209.021 53.7313 240.463 87.6746 267.741C105.112 281.748 126.761 294.383 148.557 303.296C177.406 315.099 208.754 319.556 241.717 316.617C268.558 314.218 296.575 306.872 324.984 294.873C328.951 293.208 332.821 291.494 336.543 289.731C345.947 256.134 347.27 223.273 340.021 192.958C335.465 173.907 326.943 153.485 315.384 133.895C303.432 113.669 288.493 94.8138 272.134 79.338C254.501 62.6378 235.742 50.1495 216.493 42.3136C195.725 33.8411 174.908 31.0985 154.631 34.086C133.961 37.2203 113.095 46.2805 94.5808 59.9932Z" fill="white"/>
</svg>
