<svg width="512" height="446" viewBox="0 0 512 446" fill="none" xmlns="http://www.w3.org/2000/svg">
<path d="M511.653 18.6748C514.149 7.05594 502.758 -2.74097 491.646 1.49899L9.65091 185.497C3.84997 187.712 0.0130047 193.272 0.00100479 199.481C-0.0109951 205.691 3.80397 211.266 9.59691 213.503L144.999 265.797V430.509C144.999 437.457 149.77 443.495 156.529 445.102C163.244 446.699 170.246 443.504 173.394 437.259L229.395 326.132L366.057 427.554C374.37 433.724 386.319 429.8 389.344 419.885C516.942 1.53201 511.426 19.7258 511.653 18.6748V18.6748ZM392.673 71.3923L157.872 238.61L56.8454 199.592L392.673 71.3923ZM174.998 263.242L379.664 117.487C203.552 303.275 212.75 293.496 211.982 294.53C210.841 296.065 213.967 290.082 174.998 367.411V263.242ZM366.854 390.787L246.56 301.512L464.068 72.0523L366.854 390.787Z" fill="white"/>
</svg>
