<svg width="154" height="150" viewBox="0 0 154 150" fill="none" xmlns="http://www.w3.org/2000/svg">
<path d="M27.24 1.83705e-06H126.58C130.157 1.59586e-06 133.698 0.704658 137.003 2.07372C140.307 3.44278 143.309 5.44942 145.838 7.97902C148.367 10.5086 150.372 13.5116 151.74 16.8165C153.108 20.1213 153.811 23.6633 153.81 27.24V122.76C153.811 126.337 153.108 129.879 151.74 133.184C150.372 136.488 148.367 139.491 145.838 142.021C143.309 144.551 140.307 146.557 137.003 147.926C133.698 149.295 130.157 150 126.58 150H27.24C23.6624 150.001 20.1197 149.298 16.8141 147.929C13.5086 146.561 10.5052 144.554 7.97548 142.025C5.44575 139.495 3.43932 136.491 2.07085 133.186C0.702374 129.88 -0.00131224 126.338 1.83705e-06 122.76V27.24C-0.00131224 23.6624 0.702374 20.1197 2.07085 16.8141C3.43932 13.5086 5.44575 10.5052 7.97548 7.97548C10.5052 5.44575 13.5086 3.43932 16.8141 2.07085C20.1197 0.702374 23.6624 -0.00131224 27.24 1.83705e-06Z" fill="#001E36"/>
<path d="M34.64 105.18V39.18C34.64 39.005 34.7095 38.8371 34.8333 38.7133C34.9571 38.5895 35.125 38.52 35.3 38.52C36.38 38.52 37.4 38.52 38.87 38.46C40.34 38.4 42.01 38.39 43.74 38.33C45.47 38.27 47.33 38.27 49.31 38.2C51.29 38.13 53.22 38.14 55.14 38.14C59.6242 38.0122 64.0949 38.6896 68.34 40.14C71.5603 41.2247 74.4959 43.0188 76.93 45.39C78.9951 47.4637 80.591 49.9565 81.61 52.7C82.5754 55.3611 83.0728 58.1692 83.08 61C83.08 66.5067 81.8 71.0567 79.24 74.65C76.6623 78.2329 73.0666 80.9576 68.92 82.47C64.2805 84.0473 59.3988 84.7921 54.5 84.67C52.97 84.67 51.94 84.67 51.3 84.6C50.66 84.53 49.76 84.54 48.54 84.54V105.11C48.5554 105.215 48.5493 105.323 48.5222 105.426C48.495 105.529 48.4473 105.625 48.3819 105.709C48.3165 105.793 48.2348 105.863 48.1417 105.915C48.0485 105.967 47.9459 105.999 47.84 106.01H35.41C34.9 106.01 34.64 105.75 34.64 105.18ZM48.64 50.88V72.41C49.53 72.47 50.37 72.54 51.13 72.54H54.53C57.0313 72.5399 59.5175 72.1519 61.9 71.39C63.9315 70.7832 65.7466 69.6067 67.13 68C68.5637 66.1096 69.2732 63.7683 69.13 61.4C69.1971 59.3951 68.6869 57.4132 67.66 55.69C66.5876 54.0115 65.0077 52.7188 63.15 52C60.7455 51.0557 58.1714 50.6199 55.59 50.72C53.92 50.72 52.45 50.72 51.23 50.78C50.3564 50.7225 49.4793 50.7459 48.61 50.85L48.64 50.88ZM123.09 68.52C121.156 67.5034 119.084 66.7725 116.94 66.35C114.588 65.8108 112.183 65.5292 109.77 65.51C108.471 65.4683 107.174 65.6199 105.92 65.96C105.117 66.1219 104.403 66.5785 103.92 67.24C103.588 67.7675 103.408 68.3766 103.4 69C103.427 69.6112 103.652 70.1971 104.04 70.67C104.645 71.3832 105.386 71.968 106.22 72.39C107.69 73.16 109.22 73.87 110.76 74.51C114.22 75.6713 117.53 77.239 120.62 79.18C122.724 80.5038 124.463 82.3326 125.68 84.5C126.713 86.5393 127.218 88.805 127.15 91.09C127.205 94.117 126.336 97.0889 124.66 99.61C122.869 102.165 120.375 104.145 117.48 105.31C113.791 106.752 109.849 107.432 105.89 107.31C102.969 107.321 100.055 107.04 97.19 106.47C94.9326 106.103 92.7358 105.43 90.66 104.47C90.4342 104.362 90.2458 104.19 90.1192 103.974C89.9927 103.758 89.9337 103.51 89.95 103.26V92.09C89.9428 91.9795 89.9627 91.8688 90.0081 91.7678C90.0534 91.6667 90.1227 91.5782 90.21 91.51C90.2993 91.4589 90.4024 91.4372 90.5047 91.448C90.607 91.4587 90.7033 91.5014 90.78 91.57C93.2457 93.0263 95.9251 94.0859 98.72 94.71C101.187 95.3646 103.728 95.7007 106.28 95.71C108.094 95.8088 109.907 95.5048 111.59 94.82C112.103 94.5804 112.537 94.2008 112.843 93.7248C113.149 93.2488 113.315 92.6959 113.32 92.13C113.278 91.6147 113.118 91.1159 112.853 90.6721C112.587 90.2283 112.224 89.8513 111.79 89.57C109.837 88.3002 107.725 87.2916 105.51 86.57C102.294 85.4308 99.2391 83.8813 96.42 81.96C94.4115 80.5282 92.7477 78.6663 91.55 76.51C90.5284 74.4881 90.0234 72.2446 90.08 69.98C90.0904 67.2468 90.844 64.5678 92.26 62.23C93.8841 59.6391 96.2256 57.5756 99 56.29C102.549 54.6664 106.43 53.8991 110.33 54.05C112.987 54.0488 115.641 54.2426 118.27 54.63C120.162 54.8843 122.013 55.3783 123.78 56.1C123.92 56.1485 124.049 56.2249 124.159 56.3246C124.269 56.4242 124.358 56.5451 124.42 56.68C124.492 56.9275 124.536 57.1825 124.55 57.44V67.88C124.551 68.0043 124.522 68.1271 124.467 68.2383C124.411 68.3495 124.33 68.446 124.23 68.52C123.859 68.6561 123.451 68.6561 123.08 68.52H123.09Z" fill="#31A8FF"/>
</svg>
