<svg width="150" height="150" viewBox="0 0 150 150" fill="none" xmlns="http://www.w3.org/2000/svg">
<path d="M48.62 115.09C49.82 114.55 51.03 114.09 52.25 113.6C53.64 113.08 55.03 112.6 56.44 112.17C58.2 111.64 59.97 111.17 61.77 110.78C64.1972 110.265 66.6509 109.885 69.12 109.64C67.7267 114 66.2 118.333 64.54 122.64C64.61 123.48 64.65 124.32 64.67 125.16C71.4862 123.8 78.5038 123.8 85.32 125.16C85.32 124.31 85.38 123.48 85.46 122.64C83.8 118.34 82.2733 114.007 80.88 109.64C83.3497 109.88 85.8037 110.261 88.23 110.78C90.02 111.16 91.8 111.64 93.55 112.17C94.97 112.59 96.36 113.08 97.74 113.6C99.12 114.12 100.18 114.6 101.38 115.09C110.046 118.934 117.767 124.627 124 131.77C135.585 121.772 143.835 108.47 147.642 93.6477C151.449 78.8259 150.631 63.1943 145.298 48.8509C139.964 34.5074 130.371 22.1387 117.805 13.4048C105.24 4.67083 90.3029 -0.0102844 75 -0.0102844C59.6971 -0.0102844 44.7604 4.67083 32.1947 13.4048C19.629 22.1387 10.0357 34.5074 4.70234 48.8509C-0.630989 63.1943 -1.44908 78.8259 2.35788 93.6477C6.16483 108.47 14.4146 121.772 26 131.77C32.2334 124.627 39.9538 118.934 48.62 115.09Z" fill="#A0DBE8"/>
<path d="M53.56 128.66C57.121 127.08 60.8475 125.902 64.67 125.15C64.67 124.3 64.61 123.47 64.54 122.63C66.2 118.33 67.7267 113.997 69.12 109.63C66.6503 109.87 64.1963 110.251 61.77 110.77C59.98 111.15 58.2 111.63 56.44 112.16C55.03 112.58 53.64 113.07 52.25 113.59L57.72 114.92L53.56 128.66Z" fill="#525353"/>
<path d="M40.67 136.74C40.81 135.34 40.89 133.93 40.89 132.51C40.9005 132.104 41.0697 131.719 41.3615 131.436C41.6532 131.154 42.044 130.997 42.45 131H43.81L48.62 115.13C39.9576 118.962 32.2375 124.641 26 131.77C29.5092 134.808 33.2958 137.51 37.31 139.84C38.3967 138.76 39.5167 137.727 40.67 136.74Z" fill="#525353"/>
<path d="M101.38 115.09L106.19 131H107.55C107.754 130.999 107.956 131.038 108.145 131.115C108.333 131.193 108.505 131.307 108.649 131.451C108.793 131.595 108.907 131.767 108.985 131.955C109.062 132.144 109.101 132.346 109.1 132.55C109.1 133.97 109.19 135.38 109.32 136.78C110.48 137.767 111.597 138.8 112.67 139.88C116.689 137.532 120.482 134.817 124 131.77C117.767 124.627 110.046 118.934 101.38 115.09Z" fill="#525353"/>
<path d="M92.28 114.93L97.74 113.6C96.36 113.08 94.96 112.6 93.55 112.17C91.79 111.64 90.02 111.17 88.22 110.78C85.7963 110.265 83.3458 109.884 80.88 109.64C82.26 114 83.8 118.33 85.45 122.64C85.38 123.48 85.34 124.32 85.32 125.16C89.1458 125.912 92.8756 127.09 96.44 128.67L92.28 114.93Z" fill="#525353"/>
<path d="M75 131H85.57C85.3525 129.071 85.269 127.13 85.32 125.19C78.5038 123.83 71.4862 123.83 64.67 125.19C64.7243 127.13 64.6441 129.071 64.43 131H75Z" fill="black"/>
<path d="M37.33 139.84C38.2 140.35 39.08 140.84 39.97 141.32C40.2851 139.807 40.5187 138.278 40.67 136.74C39.51 137.727 38.3967 138.76 37.33 139.84Z" fill="black"/>
<path d="M52.86 131H64.43C64.6441 129.071 64.7243 127.13 64.67 125.19C60.8475 125.942 57.121 127.12 53.56 128.7L52.86 131Z" fill="black"/>
<path d="M109.32 136.74C109.47 138.279 109.707 139.808 110.03 141.32C110.92 140.85 111.8 140.32 112.67 139.84C111.603 138.76 110.487 137.727 109.32 136.74Z" fill="black"/>
<path d="M97.13 131L96.44 128.7C92.8756 127.12 89.1458 125.942 85.32 125.19C85.269 127.13 85.3525 129.071 85.57 131H97.13Z" fill="black"/>
<path d="M52.86 131L53.56 128.7L57.72 114.97L52.26 113.64C51.03 114.1 49.82 114.64 48.62 115.13L43.81 131H52.81H52.86Z" fill="#AA9678"/>
<path d="M96.44 128.66L97.13 130.96H106.19L101.38 115.09C100.18 114.55 98.97 114.09 97.74 113.6L92.28 114.93L96.44 128.66Z" fill="#AA9678"/>
<path d="M44 134.16L44.14 134.06H44V134.16Z" fill="#C0B098"/>
<path d="M75 134.06H44.11L43.97 134.16C43.8604 137.056 43.4787 139.935 42.83 142.76C52.8798 147.54 63.8711 150.014 75 150V134.06Z" fill="#C0B098"/>
<path d="M106 134.06H105.87L106.01 134.16C106.01 134.16 106 134.1 106 134.06Z" fill="#AA9678"/>
<path d="M105.89 134.06H75V150C86.1258 150.015 97.1141 147.542 107.16 142.76C106.52 139.934 106.141 137.055 106.03 134.16L105.89 134.06Z" fill="#AA9678"/>
<path d="M109.32 136.74C109.19 135.34 109.1 133.93 109.1 132.51C109.101 132.306 109.062 132.104 108.985 131.915C108.907 131.727 108.793 131.555 108.649 131.411C108.505 131.267 108.333 131.153 108.145 131.075C107.956 130.998 107.754 130.959 107.55 130.96H42.45C42.2456 130.959 42.043 130.998 41.8538 131.075C41.6646 131.152 41.4925 131.266 41.3475 131.41C41.2025 131.554 41.0875 131.726 41.0089 131.915C40.9304 132.103 40.89 132.306 40.89 132.51C40.8876 133.923 40.8141 135.335 40.67 136.74C40.5187 138.278 40.2851 139.807 39.97 141.32C40.91 141.82 41.87 142.32 42.83 142.76C43.4794 139.936 43.8611 137.056 43.97 134.16V134.06H106C106 134.06 106 134.13 106 134.16C106.101 137.056 106.48 139.936 107.13 142.76C108.13 142.3 109.05 141.82 109.99 141.32C109.686 139.806 109.462 138.277 109.32 136.74Z" fill="#8B7460"/>
<path d="M96.47 120.25C96.25 120 96.01 119.72 95.77 119.4C96.01 119.72 96.25 120 96.47 120.25Z" fill="#525353"/>
<path d="M124.93 58.31V58.26C124.336 57.431 123.691 56.6395 123 55.89C122.7 55.56 122.39 55.25 122.09 54.96L121.74 54.64L121.16 54.13V61.13L123.83 73.37L123.92 73.65L125.77 75.72H127.7C127.7 75.54 127.7 75.37 127.7 75.19C127.698 69.5541 126.786 63.9554 125 58.61C125 58.51 125 58.41 124.93 58.31Z" fill="#BBBCBD"/>
<path d="M124.05 74.51C124.05 74.51 124.05 74.51 124.05 74.57C124.05 74.63 124.05 74.57 124.05 74.57C124.082 74.8656 124.099 75.1626 124.1 75.46C124.1 75.46 124.1 75.57 124.1 75.62C124.1 75.68 124.1 75.74 124.1 75.8C124.099 76.0907 124.082 76.3811 124.05 76.67C124.05 76.67 124.05 76.67 124.05 76.73C124.011 77.0297 123.954 77.3269 123.88 77.62L125.72 75.62L123.87 73.54C123.949 73.8595 124.009 74.1834 124.05 74.51Z" fill="#676A6A"/>
<path d="M124.05 76.86C124.045 76.8235 124.045 76.7865 124.05 76.75C124.082 76.4611 124.099 76.1707 124.1 75.88C124.1 75.81 124.1 75.75 124.1 75.68C124.1 75.61 124.1 75.56 124.1 75.5C124.099 75.2027 124.082 74.9056 124.05 74.61C124.05 74.61 124.05 74.55 124.05 74.51C124.01 74.2071 123.953 73.9067 123.88 73.61L123.79 73.32C123.631 72.7745 123.391 72.2555 123.08 71.78L122.96 71.62L122.72 71.31C122.6 71.1798 122.469 71.0594 122.33 70.95L122.17 70.85C122.057 70.7746 121.936 70.7109 121.81 70.66L121.65 70.6C121.303 70.4804 120.927 70.4804 120.58 70.6L120.42 70.66C120.294 70.7109 120.173 70.7746 120.06 70.85L119.9 70.95C119.763 71.062 119.633 71.1822 119.51 71.31L119.27 71.62L119.15 71.78C118.841 72.2565 118.601 72.7752 118.44 73.32C118.444 73.3431 118.444 73.3669 118.44 73.39C118.37 73.66 118.3 73.94 118.25 74.24C118.25 74.32 118.25 74.41 118.25 74.5C118.207 74.8317 118.183 75.1656 118.18 75.5C118.18 75.5 118.18 75.6 118.18 75.65C118.18 78.5 119.53 80.82 121.18 80.82C121.469 80.8144 121.753 80.7426 122.01 80.61L122.13 80.55C122.245 80.4894 122.352 80.4156 122.45 80.33C122.508 80.2853 122.562 80.235 122.61 80.18C122.752 80.0544 122.879 79.9136 122.99 79.76C123.08 79.65 123.16 79.54 123.24 79.42C123.32 79.3 123.33 79.26 123.37 79.17C123.464 79.0138 123.544 78.8499 123.61 78.68L123.69 78.5C123.78 78.26 123.86 78 123.93 77.74C123.987 77.4492 124.027 77.1554 124.05 76.86ZM121.22 75C120.6 75 120.09 74.13 120.09 73.06C120.09 71.99 120.6 71.12 121.22 71.12C121.84 71.12 122.36 71.99 122.36 73.06C122.36 74.13 121.85 75 121.22 75Z" fill="black"/>
<path d="M121.22 74.99C121.844 74.99 122.35 74.1214 122.35 73.05C122.35 71.9786 121.844 71.11 121.22 71.11C120.596 71.11 120.09 71.9786 120.09 73.05C120.09 74.1214 120.596 74.99 121.22 74.99Z" fill="white"/>
<path d="M118.44 73.32C118.599 72.7744 118.839 72.2555 119.15 71.78L119.27 71.62L119.51 71.31C119.637 71.1833 119.767 71.0633 119.9 70.95L120.06 70.85C120.173 70.7746 120.294 70.7109 120.42 70.66L120.58 70.6C120.927 70.4804 121.303 70.4804 121.65 70.6L121.81 70.66C121.936 70.7109 122.057 70.7746 122.17 70.85L122.33 70.95C122.469 71.0594 122.6 71.1798 122.72 71.31L122.96 71.62L123.08 71.78C123.391 72.2555 123.631 72.7744 123.79 73.32L121.12 61.09L118.44 73.32Z" fill="#909393"/>
<path d="M85.72 75.57C85.7352 75.3269 85.7352 75.0831 85.72 74.84C85.72 74.6 85.65 74.37 85.6 74.14C85.5467 73.92 85.4867 73.7 85.42 73.48C85.3514 73.2644 85.2679 73.0539 85.17 72.85C85.08 72.65 84.97 72.44 84.86 72.25C84.0818 70.8699 82.8585 69.7947 81.39 69.2C80.9838 69.0315 80.5617 68.9042 80.13 68.82C79.6814 68.7362 79.2263 68.6927 78.77 68.69C78.3236 68.6922 77.8784 68.7357 77.44 68.82C77.0155 68.9022 76.6001 69.0261 76.2 69.19C75.797 69.3498 75.4116 69.5509 75.05 69.79C74.694 70.0233 74.3594 70.2877 74.05 70.58C73.5417 71.054 73.1099 71.6038 72.77 72.21C72.67 72.4 72.57 72.59 72.48 72.79V72.85C72.3997 73.0326 72.3295 73.2196 72.27 73.41C72.27 73.41 72.27 73.49 72.27 73.52C72.2128 73.7005 72.166 73.8841 72.13 74.07C72.1255 74.1199 72.1255 74.1701 72.13 74.22C72.0895 74.4015 72.0594 74.5851 72.04 74.77V74.94C72.04 75.18 72.04 75.43 72.04 75.68C71.8931 76.1086 71.7892 76.5508 71.73 77C71.8175 77.4352 71.9482 77.8607 72.12 78.27C72.4615 79.0852 72.9496 79.8308 73.56 80.47C74.045 80.9703 74.5969 81.4011 75.2 81.75C75.3895 81.8606 75.5867 81.9575 75.79 82.04C75.9754 82.122 76.1657 82.1921 76.36 82.25H76.45C76.6308 82.306 76.8144 82.3528 77 82.39H77.15C77.33 82.39 77.51 82.45 77.7 82.48H77.86C78.1064 82.4949 78.3536 82.4949 78.6 82.48C79.5444 82.4841 80.4798 82.297 81.35 81.93C81.7684 81.7492 82.17 81.5317 82.55 81.28C83.301 80.769 83.949 80.121 84.46 79.37C84.7117 78.99 84.9292 78.5884 85.11 78.17C85.477 77.2998 85.6641 76.3644 85.66 75.42V75.37L85.72 75.57ZM78.66 74.74C78.1335 74.742 77.6182 74.5877 77.1795 74.2966C76.7407 74.0055 76.3982 73.5908 76.1954 73.1049C75.9925 72.619 75.9384 72.0839 76.0399 71.5672C76.1414 71.0506 76.3939 70.5757 76.7656 70.2027C77.1372 69.8297 77.6111 69.5753 78.1274 69.4719C78.6436 69.3684 79.179 69.4205 79.6656 69.6215C80.1522 69.8226 80.5683 70.1635 80.861 70.6012C81.1537 71.0388 81.31 71.5535 81.31 72.08C81.3113 72.4288 81.2437 72.7745 81.1112 73.0972C80.9786 73.4199 80.7836 73.7132 80.5374 73.9603C80.2912 74.2074 79.9986 74.4035 79.6764 74.5373C79.3543 74.6711 79.0088 74.74 78.66 74.74Z" fill="black"/>
<path d="M78.66 74.73C80.1236 74.73 81.31 73.5435 81.31 72.08C81.31 70.6164 80.1236 69.43 78.66 69.43C77.1964 69.43 76.01 70.6164 76.01 72.08C76.01 73.5435 77.1964 74.73 78.66 74.73Z" fill="white"/>
<path d="M73.8 70.55L78.7 55.64V52.11C75.9524 51.5448 73.1551 51.2567 70.35 51.25C69.4 51.25 68.45 51.25 67.51 51.36H67.1C62.22 51.7604 57.4478 53.0127 53 55.06C49.1847 56.819 45.631 59.0972 42.44 61.83C41.58 62.56 40.76 63.33 39.96 64.12L39.51 64.56C38.75 65.32 38.02 66.1 37.32 66.91L36.86 67.45C36.16 68.28 35.47 69.13 34.81 70.02C34.81 70.09 34.71 70.17 34.65 70.24C34.03 71.09 33.44 71.96 32.86 72.85L32.53 73.37C32.06 74.1 31.63 74.85 31.21 75.61H53.33L73.8 70.55Z" fill="#BBBCBD"/>
<path d="M92.52 68.87C92.52 68.29 92.6 67.71 92.63 67.13C92.63 66.35 92.69 65.56 92.71 64.77C92.71 64.16 92.71 63.55 92.71 62.94V62.41C92.71 60.83 92.63 59.26 92.53 57.68H92.46L90.82 56.74L90.36 56.48L90.04 56.31H89.98L89.65 56C88.65 55.48 87.59 55 86.53 54.54C83.9851 53.5281 81.3678 52.7091 78.7 52.09V55.61L83.52 70.52C84.0223 70.9969 84.4504 71.5463 84.79 72.15C84.9 72.34 85.01 72.55 85.1 72.75C85.1979 72.9539 85.2814 73.1644 85.35 73.38C85.4167 73.6 85.4767 73.82 85.53 74.04C85.53 74.27 85.62 74.5 85.65 74.74C85.6652 74.9831 85.6652 75.2269 85.65 75.47H91.56C91.95 73.31 92.23 71.12 92.41 68.92C92.4458 68.9015 92.4825 68.8849 92.52 68.87Z" fill="#E2DDDB"/>
<path d="M85.77 96.85C87.11 95.52 88.38 94.24 89.58 92.99C90.3 92.24 91 91.51 91.67 90.78C96.61 85.42 100.23 80.41 102.41 73.96C102.41 73.8 102.51 73.6 102.56 73.38V73.27C102.607 73.03 102.657 72.76 102.71 72.46C102.71 72.25 102.71 72.05 102.76 71.86C102.109 69.0556 101.257 66.3018 100.21 63.62L99.66 63.13C99.1 62.61 98.54 62.13 97.96 61.63C96.2503 60.1612 94.4318 58.824 92.52 57.63C92.62 59.21 92.68 60.78 92.7 62.36V62.89C92.7 63.5 92.7 64.11 92.7 64.72C92.7 65.51 92.7 66.3 92.62 67.08C92.62 67.66 92.58 68.24 92.5 68.82C92.5 68.88 92.5 68.94 92.5 69C92.3242 71.1998 92.0372 73.3892 91.64 75.56L91 78.89C89.55 84.76 86.61 90.09 84.19 95.59C83.55 97.05 82.94 98.53 82.4 100.03L82.25 100.45C83.01 99.66 83.68 98.97 84.19 98.45L85.77 96.85Z" fill="#FBB040"/>
<path d="M73.83 70.52C74.1392 70.2245 74.4738 69.9568 74.83 69.72C75.1961 69.4886 75.5808 69.2879 75.98 69.12C76.3801 68.9561 76.7955 68.8322 77.22 68.75C77.6584 68.6657 78.1036 68.6222 78.55 68.62C79.0069 68.621 79.4625 68.6679 79.91 68.76C80.3405 68.8488 80.7622 68.9759 81.17 69.14C81.9847 69.4779 82.7304 69.9626 83.37 70.57L78.7 55.64L73.83 70.52Z" fill="#909393"/>
<path d="M72.12 78.34C71.9494 77.9267 71.8188 77.4981 71.73 77.06C71.6374 76.6125 71.5905 76.1569 71.59 75.7C71.59 75.45 71.59 75.2 71.59 74.96V74.79C71.6102 74.6052 71.6403 74.4216 71.68 74.24C71.6755 74.1901 71.6755 74.1399 71.68 74.09C71.7148 73.9071 71.7616 73.7267 71.82 73.55C71.82 73.55 71.82 73.47 71.82 73.44C71.89 73.25 71.95 73.06 72.03 72.87C72.03 72.87 72.03 72.87 72.03 72.81C72.12 72.62 72.22 72.42 72.32 72.24C72.6626 71.6326 73.094 71.0798 73.6 70.6L53.33 75.61L73.61 80.55C72.994 79.9153 72.5052 79.1685 72.17 78.35L72.12 78.34Z" fill="#676A6A"/>
<path d="M118.18 74.5C118.185 74.4101 118.185 74.3199 118.18 74.23C118.227 73.9465 118.29 73.666 118.37 73.39C118.375 73.3568 118.375 73.3232 118.37 73.29L121.04 61.06V54.06C119.114 52.3243 116.632 51.3347 114.04 51.27C110.97 51.27 108.1 52.97 105.95 55.06C103.652 57.4395 101.755 60.1748 100.33 63.16C100.26 63.29 100.19 63.42 100.13 63.56L101.47 64.75C102.47 65.66 103.47 66.6 104.41 67.55C104.86 67.99 105.29 68.45 105.74 68.9C106.19 69.35 106.67 69.85 107.14 70.34C107.61 70.83 108.32 71.59 108.9 72.22L109.63 73.03C110.34 73.81 111.03 74.59 111.72 75.38L111.95 75.62H117.95C117.95 75.57 117.95 75.53 117.95 75.48C118.11 75.17 118.14 74.83 118.18 74.5Z" fill="#E2DDDB"/>
<path d="M27.52 83.3L27.58 83.17C27.96 82.17 28.39 81.17 28.84 80.17C28.96 79.9 29.09 79.62 29.22 79.35C29.58 78.57 29.97 77.8 30.37 77.04C30.53 76.73 30.69 76.42 30.86 76.12C31.03 75.82 31.06 75.79 31.15 75.62C31.58 74.86 32.01 74.11 32.47 73.37C32.58 73.2 32.7 73.03 32.81 72.85C33.38 71.97 33.98 71.1 34.6 70.25L34.76 70.02C35.41 69.14 36.1 68.29 36.81 67.45L37.27 66.92C37.97 66.11 38.7 65.33 39.46 64.56L39.91 64.12C40.71 63.34 41.53 62.57 42.39 61.84C43.5194 57.8516 45.5576 54.1791 48.3448 51.1106C51.1319 48.0422 54.5921 45.6613 58.4539 44.1548C62.3157 42.6483 66.474 42.057 70.6027 42.4275C74.7314 42.7979 78.7181 44.12 82.25 46.29C86.5538 48.9585 90.0355 52.7656 92.31 57.29V57.36C92.3759 57.4701 92.436 57.5836 92.49 57.7C94.4024 58.8931 96.221 60.2303 97.93 61.7C98.51 62.18 99.07 62.7 99.63 63.2L100.18 63.69C100.25 63.56 100.31 63.43 100.37 63.31C102.09 52.46 106.87 44.64 112.52 44.64C116.77 44.64 120.52 49.08 122.88 55.91V55.98C123.566 56.7317 124.207 57.5231 124.8 58.35V58.4C124.8 58.5 124.86 58.6 124.9 58.7L124.81 58.35C120.752 46.634 112.686 36.7278 102.035 30.3793C91.3851 24.0307 78.8348 21.6477 66.5987 23.6508C54.3626 25.6539 43.2271 31.9143 35.157 41.3274C27.0869 50.7406 22.6007 62.7015 22.49 75.1C22.4791 80.6611 23.3603 86.188 25.1 91.47C25.43 89.92 25.83 88.38 26.3 86.86C26.68 85.64 27.08 84.47 27.52 83.3Z" fill="#525353"/>
<path d="M125.73 75.68L123.89 77.68C123.82 77.9409 123.737 78.1979 123.64 78.45L123.56 78.63C123.492 78.8022 123.412 78.9693 123.32 79.13L123.19 79.37C123.11 79.49 123.03 79.6 122.94 79.71C122.829 79.8636 122.702 80.0044 122.56 80.13L122.4 80.29C122.3 80.3692 122.193 80.4394 122.08 80.5L121.96 80.57C121.701 80.6956 121.418 80.7638 121.13 80.77C119.46 80.77 118.13 78.45 118.13 75.6H112.13C113.25 76.9 114.357 78.2333 115.45 79.6C116.51 80.9 117.55 82.2 118.59 83.52L118.74 83.71C119.72 84.9633 120.69 86.2167 121.65 87.47C121.74 87.6 121.83 87.72 121.93 87.84L124.93 91.84C126.703 86.5929 127.635 81.0983 127.69 75.56H125.69L125.73 75.68Z" fill="white"/>
<path d="M67.1 51.38H67.51C68.45 51.31 69.4 51.27 70.35 51.27C73.1551 51.2767 75.9524 51.5648 78.7 52.13C81.3678 52.7491 83.9851 53.5681 86.53 54.58C87.59 55.03 88.63 55.52 89.65 56.04L89.88 56.17H89.94L90.26 56.34L90.72 56.6L92.36 57.54H92.43C92.376 57.4236 92.3159 57.3101 92.25 57.2V57.13C89.9794 52.6029 86.4968 48.7949 82.19 46.13C78.6505 43.9714 74.6587 42.6629 70.5282 42.307C66.3977 41.9511 62.2409 42.5577 58.3843 44.079C54.5278 45.6003 51.0764 47.995 48.3012 51.0749C45.526 54.1549 43.5027 57.8363 42.39 61.83C45.594 59.09 49.1652 56.8113 53 55.06C57.4493 53.0199 62.2213 51.7745 67.1 51.38Z" fill="black"/>
<path d="M106.07 55.1C108.22 53 111.07 51.3 114.16 51.3C116.751 51.3691 119.232 52.3581 121.16 54.09C121.36 54.25 121.55 54.43 121.74 54.61L122.1 54.92C122.4 55.2133 122.7 55.5233 123 55.85V55.78C120.66 48.95 116.89 44.51 112.64 44.51C106.99 44.51 102.21 52.33 100.49 63.18C101.901 60.2028 103.786 57.474 106.07 55.1Z" fill="black"/>
<path d="M56.26 124.16C56.74 124.35 57.26 124.51 57.72 124.68C69.7479 128.896 82.8984 128.593 94.72 123.83L95.72 123.43L97.26 122.75C97.71 122.54 98.16 122.33 98.61 122.1L98.29 122.15C96.4344 122.39 94.5556 122.39 92.7 122.15C81.87 120.6 79.47 115.38 79.82 109.94C78.9997 109.47 78.2052 108.955 77.44 108.4C72.4826 104.828 68.0145 100.623 64.15 95.89C69.084 99.4628 74.4627 102.377 80.15 104.56L80.75 104.78C81.2 103.23 81.75 101.78 82.19 100.46C82.19 100.31 82.3 100.17 82.34 100.03C82.88 98.53 83.49 97.03 84.13 95.59C86.55 90.09 89.49 84.76 90.94 78.89L91.64 75.61H85.72C85.7209 76.5551 85.5304 77.4905 85.16 78.36C84.9792 78.7784 84.7617 79.18 84.51 79.56C83.999 80.311 83.351 80.959 82.6 81.47C82.22 81.7217 81.8184 81.9392 81.4 82.12C80.5305 82.4904 79.5951 82.6809 78.65 82.68C78.4 82.68 78.16 82.68 77.92 82.68H77.75C77.5651 82.6606 77.3815 82.6305 77.2 82.59H77.05C76.87 82.59 76.68 82.5 76.51 82.44H76.41C76.22 82.37 76.02 82.3 75.84 82.22L75.25 81.93C74.6402 81.5907 74.0841 81.1627 73.6 80.66L53.33 75.66H31.15C31.06 75.83 30.95 75.99 30.86 76.16C30.77 76.33 30.53 76.78 30.37 77.08C29.97 77.84 29.58 78.61 29.22 79.39C29.09 79.66 28.96 79.94 28.84 80.21C28.39 81.21 27.97 82.21 27.58 83.21L27.52 83.35C27.08 84.51 26.68 85.68 26.32 86.87C25.85 88.39 25.45 89.93 25.12 91.48C28.5799 102.004 35.2706 111.168 44.24 117.67C44.5 117.86 44.77 118.03 45.03 118.21C48.5101 120.668 52.2824 122.683 56.26 124.21V124.16Z" fill="white"/>
<path d="M92.58 107.82C92.3561 109.288 92.3561 110.782 92.58 112.25C92.6774 112.813 92.8042 113.37 92.96 113.92C93.1771 114.691 93.4546 115.443 93.79 116.17C94.0827 116.827 94.4167 117.465 94.79 118.08C94.91 118.28 95.03 118.46 95.15 118.64L95.7 119.4C95.95 119.72 96.18 120 96.41 120.26C96.9543 120.892 97.5533 121.474 98.2 122C98.2 122 98.2 122.08 98.2 122.13H98.52C100.911 121.795 103.258 121.202 105.52 120.36C106.71 119.93 107.89 119.47 109.06 118.93C109.42 118.77 109.76 118.59 110.12 118.42C122.12 112.6 132.25 102.29 132.25 102.29C119.917 108.193 106.057 110.125 92.58 107.82Z" fill="#9F2255"/>
<path d="M121.62 87.53C120.62 86.26 119.69 85.01 118.71 83.76C118.71 83.69 118.6 83.63 118.55 83.57C117.55 82.25 116.48 80.95 115.42 79.65C114.333 78.3167 113.227 76.9833 112.1 75.65L111.88 75.4C111.2 74.61 110.5 73.83 109.79 73.05L109.06 72.25C108.48 71.61 107.89 70.98 107.3 70.36L105.9 68.92C105.46 68.47 105.02 68.02 104.57 67.58C103.57 66.58 102.63 65.69 101.63 64.77L100.29 63.58C101.338 66.3211 102.183 69.1353 102.82 72C102.96 72.74 103.08 73.46 103.17 74.17C104.5 84.03 101.34 90.47 96.32 98.93L95.21 100.79C94.1767 102.473 93.3982 104.299 92.9 106.21C92.7624 106.76 92.6556 107.318 92.58 107.88C102.42 109.46 117.21 109.76 132.35 102.32C132.35 102.32 129.35 97.96 124.92 91.96L121.92 87.96L121.62 87.53Z" fill="#E2066F"/>
<path d="M98.2 122C97.5754 121.477 96.9966 120.902 96.47 120.28C96.25 120.02 96.01 119.75 95.77 119.43C95.53 119.11 95.4 118.94 95.22 118.67L94.85 118.11C94.4766 117.495 94.1426 116.857 93.85 116.2C93.5146 115.473 93.2371 114.721 93.02 113.95C92.8595 113.402 92.7326 112.844 92.64 112.28C92.4925 111.364 92.4323 110.437 92.46 109.51C92.4816 108.954 92.5316 108.4 92.61 107.85C92.69 107.31 92.8 106.76 92.94 106.19C93.4396 104.277 94.218 102.447 95.25 100.76C95.62 100.13 95.99 99.52 96.35 98.92C101.35 90.45 104.52 84.02 103.2 74.15C103.1 73.45 102.99 72.73 102.85 71.99C102.77 72.4967 102.69 72.9367 102.61 73.31C102.615 73.3465 102.615 73.3835 102.61 73.42C102.61 73.64 102.51 73.84 102.46 74C100.28 80.45 96.65 85.46 91.72 90.82C91.05 91.55 90.35 92.28 89.63 93.03C88.43 94.28 87.16 95.56 85.82 96.89L84.19 98.51C83.68 99.01 83.01 99.7 82.25 100.51C81.79 101.82 81.25 103.29 80.81 104.84L80.21 104.62C74.5237 102.435 69.1454 99.5207 64.21 95.95C68.0732 100.665 72.534 104.857 77.48 108.42C78.2437 108.978 79.0383 109.492 79.86 109.96C79.51 115.4 81.86 120.62 92.73 122.17C94.5889 122.41 96.4711 122.41 98.33 122.17L98.28 122.04L98.2 122Z" fill="black"/>
</svg>
