<svg width="150" height="150" viewBox="0 0 150 150" fill="none" xmlns="http://www.w3.org/2000/svg">
<path d="M150 75C150 89.8336 145.601 104.334 137.36 116.668C129.119 129.001 117.406 138.614 103.701 144.291C89.9968 149.968 74.9168 151.453 60.3682 148.559C45.8197 145.665 32.4559 138.522 21.967 128.033C11.4781 117.544 4.335 104.18 1.44111 89.6318C-1.45278 75.0832 0.0324659 60.0032 5.70904 46.2987C11.3856 32.5943 20.9986 20.8809 33.3322 12.6398C45.6659 4.39867 60.1664 0 75 0C94.8912 0 113.968 7.90176 128.033 21.967C142.098 36.0322 150 55.1088 150 75Z" fill="black"/>
<path d="M107.79 27.75C100.17 28 93.52 32.22 88.57 38C83.09 44.37 79.44 51.92 76.81 59.64C72.11 55.78 68.49 50.8 60.95 48.64C57.9774 47.7233 54.8276 47.5364 51.7675 48.0952C48.7073 48.654 45.8268 49.9419 43.37 51.85C40.8116 53.8445 38.9353 56.5838 38 59.69C35.74 67.04 40.38 73.59 42.49 75.94L47.1 80.88C48.04 81.88 50.34 84.37 49.21 87.99C48.01 91.93 43.21 94.48 38.39 92.99C36.22 92.32 33.09 90.7 33.79 88.42C34.1723 87.5851 34.61 86.7766 35.1 86C35.3342 85.5053 35.5314 84.9939 35.69 84.47C36.58 81.57 35.36 77.8 32.25 76.83C29.35 75.94 26.38 76.65 25.25 80.39C23.94 84.63 25.97 92.33 36.85 95.69C49.61 99.61 60.39 92.69 61.92 83.61C62.92 77.95 60.32 73.73 55.63 68.31L51.81 64.08C50.5749 62.889 49.8202 61.2859 49.6893 59.5751C49.5584 57.8643 50.0604 56.165 51.1 54.8C53.1 52.24 56 51.16 60.71 52.44C67.6 54.3 70.71 59.08 75.78 62.94C73.65 69.85 72.27 76.81 71 83.05L70.23 87.71C66.6 106.9 63.8 117.44 56.54 123.5C54.6406 125.081 52.2945 126.028 49.83 126.21C49.3263 126.291 48.811 126.169 48.3969 125.871C47.9827 125.573 47.7034 125.123 47.62 124.62C47.62 123.46 48.56 122.93 49.21 122.41C50.0063 122.057 50.6656 121.454 51.088 120.693C51.5103 119.931 51.6725 119.052 51.55 118.19C51.5122 117.338 51.3037 116.502 50.9369 115.732C50.57 114.962 50.0523 114.274 49.4143 113.708C48.7764 113.142 48.0313 112.709 47.2232 112.437C46.4151 112.164 45.5605 112.056 44.71 112.12C42.6959 112.265 40.8133 113.174 39.4471 114.661C38.081 116.148 37.3344 118.101 37.36 120.12C37.54 125.42 42.48 129.39 49.93 129.12C53.93 128.99 62.82 127.37 71.58 116.95C81.79 104.95 84.64 91.3 86.79 81.28L89.19 68.04C90.51 68.2 91.94 68.31 93.49 68.35C106.2 68.62 112.55 62.04 112.65 57.25C112.72 54.35 110.75 51.49 108 51.56C106.833 51.5971 105.71 52.0179 104.807 52.7572C103.903 53.4966 103.268 54.5133 103 55.65C102.41 58.32 107 60.73 103.42 63.08C100.83 64.8 96.23 66 89.74 65L90.92 58.48C93.33 46.15 96.29 31 107.55 30.58C108.37 30.58 111.37 30.58 111.44 32.58C111.44 33.24 111.3 33.42 110.52 34.93C109.824 35.9045 109.472 37.0832 109.52 38.28C109.63 41.43 112.03 43.51 115.52 43.39C120.17 43.23 121.52 38.71 121.42 36.39C121.16 31 115.4 27.5 107.79 27.75Z" fill="white"/>
</svg>
