<svg width="150" height="150" viewBox="0 0 150 150" fill="none" xmlns="http://www.w3.org/2000/svg">
<path d="M75 0C60.1664 0 45.6659 4.39867 33.3322 12.6398C20.9986 20.8809 11.3856 32.5943 5.70904 46.2987C0.0324659 60.0032 -1.45278 75.0832 1.44111 89.6318C4.335 104.18 11.4781 117.544 21.967 128.033C32.4559 138.522 45.8197 145.665 60.3682 148.559C74.9168 151.453 89.9968 149.968 103.701 144.291C117.406 138.614 129.119 129.001 137.36 116.668C145.601 104.334 150 89.8336 150 75C149.976 55.1161 142.067 36.0534 128.007 21.9933C113.947 7.93323 94.8839 0.0238179 75 0V0Z" fill="white"/>
<path d="M10.66 75C10.6579 87.082 14.0578 98.9204 20.4705 109.16C26.8831 119.4 36.0494 127.627 46.92 132.9L16.23 48.81C12.5515 57.0509 10.6535 65.9754 10.66 75Z" fill="#21759B"/>
<path d="M118.43 71.75C118.43 63.75 115.58 58.29 113.13 54.01C109.87 48.71 106.81 44.22 106.81 38.92C106.81 33 111.3 27.5 117.61 27.5C117.9 27.5 118.17 27.5 118.45 27.55C111.58 21.2581 103.426 16.5332 94.5511 13.7021C85.6761 10.871 76.2921 10.0011 67.048 11.1527C57.8038 12.3043 48.9201 15.4499 41.0109 20.3719C33.1018 25.2939 26.356 31.875 21.24 39.66C22.75 39.71 24.18 39.74 25.38 39.74C32.11 39.74 42.53 38.92 42.53 38.92C43.2168 38.8941 43.8869 39.1351 44.3999 39.5924C44.913 40.0496 45.2291 40.6877 45.2821 41.373C45.3351 42.0582 45.1209 42.7373 44.6843 43.268C44.2477 43.7988 43.6226 44.1399 42.94 44.22C42.94 44.22 39.46 44.63 35.58 44.83L59 114.53L73.09 72.3L63.09 44.83C59.62 44.63 56.34 44.22 56.34 44.22C52.87 44.02 53.28 38.71 56.74 38.92C56.74 38.92 67.37 39.74 73.74 39.74C80.47 39.74 90.89 38.92 90.89 38.92C94.36 38.71 94.77 43.81 91.3 44.22C91.3 44.22 87.81 44.63 83.94 44.83L107.12 114L113.54 92.55C116.32 83.65 118.43 77.26 118.43 71.75Z" fill="#21759B"/>
<path d="M76.13 80.63L56.83 136.72C69.7882 140.546 83.6218 140.196 96.37 135.72C96.1872 135.443 96.033 135.148 95.91 134.84L76.13 80.63Z" fill="#21759B"/>
<path d="M131.46 44.13C131.748 46.3249 131.892 48.5363 131.89 50.75C131.89 57.27 130.67 64.61 127 73.75L107.34 130.57C121.836 122.14 132.468 108.384 136.973 92.2313C141.478 76.0788 139.5 58.8058 131.46 44.09V44.13Z" fill="#21759B"/>
<path d="M75 0C60.1664 0 45.6659 4.39867 33.3322 12.6398C20.9986 20.8809 11.3856 32.5943 5.70904 46.2987C0.0324659 60.0032 -1.45278 75.0832 1.44111 89.6318C4.335 104.18 11.4781 117.544 21.967 128.033C32.4559 138.522 45.8197 145.665 60.3682 148.559C74.9168 151.453 89.9968 149.968 103.701 144.291C117.406 138.614 129.119 129.001 137.36 116.668C145.601 104.334 150 89.8336 150 75C149.976 55.1161 142.067 36.0534 128.007 21.9933C113.947 7.93323 94.8839 0.0238179 75 0V0ZM75 146.56C60.8468 146.56 47.0114 142.363 35.2434 134.5C23.4754 126.637 14.3034 115.461 8.88718 102.385C3.47098 89.3089 2.05385 74.9206 4.81501 61.0393C7.57617 47.1581 14.3916 34.4073 24.3994 24.3994C34.4073 14.3916 47.1581 7.57616 61.0393 4.81501C74.9206 2.05385 89.3089 3.47097 102.385 8.88718C115.461 14.3034 126.637 23.4754 134.5 35.2434C142.363 47.0114 146.56 60.8468 146.56 75C146.539 93.9724 138.993 112.162 125.577 125.577C112.162 138.993 93.9724 146.539 75 146.56Z" fill="#21759B"/>
</svg>
